<?xml version="1.0" encoding="UTF-8"?>
<svg id="Capa_1" data-name="Capa 1" xmlns="http://www.w3.org/2000/svg" xmlns:xlink="http://www.w3.org/1999/xlink" viewBox="0 0 493.8 696.71">
  <defs>
    <style>
      .cls-1 {
        fill: #00a2e2;
      }

      .cls-2, .cls-3, .cls-4 {
        fill: #fff;
      }

      .cls-5 {
        opacity: .5;
      }

      .cls-3 {
        font-family: Pacifico-Regular, Pacifico;
        font-size: 63.82px;
      }

      .cls-6 {
        fill: #006f9a;
      }

      .cls-7 {
        opacity: .3;
      }

      .cls-8 {
        fill: #fdd35e;
      }

      .cls-9 {
        fill: #3e2845;
      }

      .cls-10 {
        fill: #00536e;
      }

      .cls-11 {
        clip-path: url(#clippath);
      }

      .cls-12 {
        fill: #53395d;
      }

      .cls-13 {
        fill: none;
      }

      .cls-14 {
        fill: #f7b753;
      }

      .cls-4 {
        font-family: Poppins-Medium, Poppins;
        font-size: 20.74px;
        font-weight: 500;
      }

      .cls-15 {
        fill: #843562;
      }

      .cls-16 {
        letter-spacing: 0em;
      }

      .cls-17 {
        letter-spacing: 0em;
      }

      .cls-18 {
        opacity: .25;
      }

      .cls-19 {
        fill: #efc35c;
      }
    </style>
    <clipPath id="clippath">
      <path class="cls-13" d="M341.92,298.83c7.06,3.63,21.82,9.34,21.31,20.96-.52,11.62-14.83,31.88-14.83,31.88l3.63,5.84s2.47-.26,3.37,.26c.91,.52,4.8,8.04,4.54,9.34-.26,1.3-2.47,2.75-2.47,2.75,16.87,25.17,29.45,59.39,31.53,70.81,2.08,11.42-3.37,29.32-3.37,29.32,0,0,3.63,7.52-1.69,14.14-5.32,6.62-24.26,3.24-28.15-7.01-3.89-10.25,1.17-30.36,1.17-30.36l-3.89-.78c-1.04,7.01-3.11,12.2-3.11,12.2,0,0,4.41,3.5,4.28,10.51-.13,7.01-4.32,12.45-15.4,11.59-11.07-.86-23.01-10.03-24.91-16.78-1.9-6.75,1.9-26.29,1.9-26.29,0,0-13.32,2.25-22.66-4.15-9.34-6.4-17.49-29.36-17.49-29.36,0,0-2.59,.9-3.31,.65-5.19-1.82-4.02-8.17-4.02-8.76s2.47-3.18,2.47-3.18l-1.3-2.34c-14.4,.26-39.57-2.98-45.9-13.49-6.33-10.51,1.53-35.81,1.53-35.81,.56-1.99,5.2-17.53,19.24-20.98,19.81-4.88,11.68,19.6,10.62,30.64-.43,4.51-2.31,9.03-2.31,9.03,4.33-5.45,9.09-7.15,9.09-7.15,0,0,56.98-10.93,62-24.85,5.02-13.92-12.8-17.04-8.48-27.76,4.32-10.73,26.61-.86,26.61-.86Z"/>
    </clipPath>
  </defs>
  <rect class="cls-10" width="493.8" height="696.71"/>
  <g>
    <path class="cls-2" d="M404.5,284.3s-2.91,.92-6.69,1.08c-.13,4.96-1.09,8.81-1.09,8.81,0,0-.96-3.85-1.09-8.81-3.78-.16-6.69-1.08-6.69-1.08,0,0,2.91-.92,6.69-1.08,.13-4.95,1.09-8.81,1.09-8.81,0,0,.96,3.85,1.09,8.81,3.78,.16,6.69,1.08,6.69,1.08Z"/>
    <path class="cls-2" d="M436.96,525.77s-2.91,.92-6.69,1.08c-.13,4.96-1.09,8.81-1.09,8.81,0,0-.96-3.85-1.09-8.81-3.78-.16-6.69-1.08-6.69-1.08,0,0,2.91-.92,6.69-1.08,.13-4.95,1.09-8.81,1.09-8.81,0,0,.96,3.85,1.09,8.81,3.78,.16,6.69,1.08,6.69,1.08Z"/>
    <path class="cls-2" d="M170.96,519.46s-2.91,.92-6.69,1.08c-.13,4.96-1.09,8.81-1.09,8.81,0,0-.96-3.85-1.09-8.81-3.78-.16-6.69-1.08-6.69-1.08,0,0,2.91-.92,6.69-1.08,.13-4.95,1.09-8.81,1.09-8.81,0,0,.96,3.85,1.09,8.81,3.78,.16,6.69,1.08,6.69,1.08Z"/>
    <path class="cls-2" d="M134.59,419.14s-2.91,.92-6.69,1.08c-.13,4.96-1.09,8.81-1.09,8.81,0,0-.96-3.85-1.09-8.81-3.78-.16-6.69-1.08-6.69-1.08,0,0,2.91-.92,6.69-1.08,.13-4.95,1.09-8.81,1.09-8.81,0,0,.96,3.85,1.09,8.81,3.78,.16,6.69,1.08,6.69,1.08Z"/>
    <path class="cls-2" d="M368.25,229.12s-2.91,.92-6.69,1.08c-.13,4.96-1.09,8.81-1.09,8.81,0,0-.96-3.85-1.09-8.81-3.78-.16-6.69-1.08-6.69-1.08,0,0,2.91-.92,6.69-1.08,.13-4.95,1.09-8.81,1.09-8.81,0,0,.96,3.85,1.09,8.81,3.78,.16,6.69,1.08,6.69,1.08Z"/>
    <path class="cls-2" d="M436.96,330.31s-1.96,.62-4.5,.73c-.09,3.33-.73,5.93-.73,5.93,0,0-.65-2.59-.73-5.93-2.54-.11-4.5-.73-4.5-.73,0,0,1.96-.62,4.5-.73,.09-3.33,.73-5.92,.73-5.92,0,0,.65,2.59,.73,5.92,2.54,.11,4.5,.73,4.5,.73Z"/>
    <path class="cls-2" d="M456.57,427.41s-1.96,.62-4.5,.73c-.09,3.33-.73,5.93-.73,5.93,0,0-.65-2.59-.73-5.93-2.54-.11-4.5-.73-4.5-.73,0,0,1.96-.62,4.5-.73,.09-3.33,.73-5.92,.73-5.92,0,0,.65,2.59,.73,5.92,2.54,.11,4.5,.73,4.5,.73Z"/>
    <path class="cls-2" d="M482.42,373.28s-1.96,.62-4.5,.73c-.09,3.33-.73,5.93-.73,5.93,0,0-.65-2.59-.73-5.93-2.54-.11-4.5-.73-4.5-.73,0,0,1.96-.62,4.5-.73,.09-3.33,.73-5.92,.73-5.92,0,0,.65,2.59,.73,5.92,2.54,.11,4.5,.73,4.5,.73Z"/>
    <path class="cls-2" d="M232.36,562.5s-1.96,.62-4.5,.73c-.09,3.33-.73,5.93-.73,5.93,0,0-.65-2.59-.73-5.93-2.54-.11-4.5-.73-4.5-.73,0,0,1.96-.62,4.5-.73,.09-3.33,.73-5.92,.73-5.92,0,0,.65,2.59,.73,5.92,2.54,.11,4.5,.73,4.5,.73Z"/>
    <path class="cls-2" d="M382.53,572.45s-1.96,.62-4.5,.73c-.09,3.33-.73,5.93-.73,5.93,0,0-.65-2.59-.73-5.93-2.54-.11-4.5-.73-4.5-.73,0,0,1.96-.62,4.5-.73,.09-3.33,.73-5.92,.73-5.92,0,0,.65,2.59,.73,5.92,2.54,.11,4.5,.73,4.5,.73Z"/>
    <path class="cls-2" d="M145.06,297.24s-1.96,.62-4.5,.73c-.09,3.33-.73,5.93-.73,5.93,0,0-.65-2.59-.73-5.93-2.54-.11-4.5-.73-4.5-.73,0,0,1.96-.62,4.5-.73,.09-3.33,.73-5.92,.73-5.92,0,0,.65,2.59,.73,5.92,2.54,.11,4.5,.73,4.5,.73Z"/>
    <path class="cls-2" d="M447.43,274.41s-1.96,.62-4.5,.73c-.09,3.33-.73,5.93-.73,5.93,0,0-.65-2.59-.73-5.93-2.54-.11-4.5-.73-4.5-.73,0,0,1.96-.62,4.5-.73,.09-3.33,.73-5.92,.73-5.92,0,0,.65,2.59,.73,5.92,2.54,.11,4.5,.73,4.5,.73Z"/>
    <path class="cls-2" d="M190.81,262.23s-1.96,.62-4.5,.73c-.09,3.33-.73,5.93-.73,5.93,0,0-.65-2.59-.73-5.93-2.54-.11-4.5-.73-4.5-.73,0,0,1.96-.62,4.5-.73,.09-3.33,.73-5.92,.73-5.92,0,0,.65,2.59,.73,5.92,2.54,.11,4.5,.73,4.5,.73Z"/>
    <path class="cls-2" d="M176.19,366.37s-1.96,.62-4.5,.73c-.09,3.33-.73,5.93-.73,5.93,0,0-.65-2.59-.73-5.93-2.54-.11-4.5-.73-4.5-.73,0,0,1.96-.62,4.5-.73,.09-3.33,.73-5.92,.73-5.92,0,0,.65,2.59,.73,5.92,2.54,.11,4.5,.73,4.5,.73Z"/>
  </g>
  <g>
    <g>
      <path class="cls-8" d="M425.92,446.15c-.53,4.79-1.35,9.58-2.45,14.34-2.54,10.94-6.62,21.71-12.35,32.01-33.04,59.44-108,80.85-167.44,47.82-47.33-26.3-70.55-79.19-61.37-129.66,2.35-12.92,6.82-25.67,13.55-37.78,4.58-8.24,9.97-15.76,16.02-22.5,7.81-8.7,16.72-16.12,26.38-22.14,2.75-1.72,5.57-3.33,8.45-4.82,15.48-8.03,32.52-12.7,49.95-13.68,.15,0,.31-.02,.46-.03,1.07-.06,2.13-.1,3.21-.13,2.13-.06,4.26-.06,6.38,0,14.46,.37,29.01,3.29,42.97,8.97,4.61,1.87,9.17,4.04,13.63,6.51,.96,.54,1.91,1.08,2.85,1.64,.57,.33,1.13,.68,1.69,1.02,10.45,6.39,19.62,14.11,27.42,22.83,23.35,26.07,34.44,61.01,30.66,95.59Z"/>
      <path class="cls-14" d="M243.68,540.32c59.44,33.03,134.4,11.62,167.44-47.82,5.73-10.3,9.81-21.07,12.35-32.01,1.11-4.76,1.92-9.55,2.45-14.34,.93-8.54,.96-17.1,.12-25.55-.04,.39-.08,.78-.12,1.17-.52,4.79-1.34,9.58-2.45,14.34-2.53,10.94-6.62,21.7-12.35,32.01-33.04,59.44-107.99,80.85-167.44,47.82-36.67-20.38-58.87-56.72-62.73-95.53-4.73,47.41,18.44,95.29,62.73,119.9Z"/>
      <path class="cls-14" d="M378.39,446.19c-3.36,15,1.24,27.15,10.28,27.12,9.04-.02,19.91-11.82,23.27-26.82,3.36-15-2.06-27.53-11.1-27.51-9.04,.02-19.09,12.2-22.46,27.21Z"/>
      <path class="cls-12" d="M371.52,436.13c-5.29,11.1-4.66,24.82,1.82,35.22,2.16,3.38,5.21,6.18,9.2,7.42,.36,.11,.56,.49,.45,.85-.09,.29-.36,.48-.65,.48-2.31-.01-4.63-.76-6.68-1.93-13.53-8.38-16.01-31.35-5.51-42.97,.64-.71,1.81,.08,1.37,.94h0Z"/>
      <ellipse class="cls-14" cx="247.59" cy="359.1" rx="12.24" ry="10.44" transform="translate(-22.46 16.57) rotate(-3.67)"/>
      <ellipse class="cls-8" cx="250.3" cy="362.6" rx="9.19" ry="7.42" transform="translate(-110.31 109.44) rotate(-20.31)"/>
      <path class="cls-12" d="M247.99,371.17c-4.37,.89-9.1-.38-12.37-3.51-8.2-8.23-2.01-20.24,8.45-22.16,7.52-1.62,16.76,2.68,17.96,10.81,.49,3.09-.54,6.25-2.43,8.34-.69,.77-1.96-.01-1.6-.96,1.78-4.08,.2-8.87-3.71-10.97-3.5-2.08-8.26-2.02-11.75-.13-3.37,1.77-5.63,5.39-4.51,9.11,1.23,4.04,5.6,6.54,9.87,7.14,1.31,.16,1.38,2.06,.1,2.32h0Z"/>
      <path class="cls-12" d="M263.89,351.35c6.68,6.87,4.03,17.84-3.43,23.06-9.27,6.97-24.63,5.13-30.45-5.39-1.35-2.53-1.97-5.44-1.63-8.16,.07-.52,.54-.89,1.06-.82,.42,.05,.73,.37,.81,.76,.54,2.33,1.59,4.37,3.01,6.04,7.12,8.21,22.07,7.26,28-1.83,2.39-3.61,2.56-8.38,.72-12.33-.56-1.18,1-2.26,1.91-1.33h0Z"/>
      <path class="cls-12" d="M214.46,387.1c7.5,.71,14.33,5.54,17.95,12.1,7.58,13.38,2.68,31.28-8.91,40.7-5.63,4.72-13.09,7.54-20.42,6.95-.8-.08-.81-1.24,0-1.32,6.87-.64,13.19-3.78,18.02-8.36,12.03-11.11,15.23-32.51,1.89-43.82-2.52-2.13-5.54-3.71-8.82-4.65-.94-.26-.68-1.7,.3-1.61h0Z"/>
      <ellipse class="cls-14" cx="206.51" cy="416.79" rx="21.23" ry="17.6" transform="translate(-239.93 547.38) rotate(-79.95)"/>
      <path class="cls-8" d="M205.88,434.91c6.26,.07,12.63-4.19,15.9-11.35,4.35-9.53,1.56-20.61-6.23-24.73-1.1-.58-2.24-1-3.4-1.24-4.6,1.87-8.71,5.8-11.21,11.27-4.42,9.68-2.16,20.81,4.94,26.06Z"/>
      <path class="cls-12" d="M189.4,409.01c3.14-7.81,11.51-13.83,20.19-12.97,9.53,.77,15.91,9.53,15.64,18.7-.11,4.1-1.3,8.13-3.41,11.63-4.53,7.61-14.05,12.75-22.85,10.01-2.06-.65-3.99-1.69-5.59-3.09-1.62-1.38-2.9-3.1-3.81-4.96-.16-.33-.02-.72,.3-.88,.3-.15,.65-.05,.83,.22,2.87,4.23,7.91,6.76,12.99,6.31,9.57-.68,17.13-10.03,17.14-19.3,.19-9.46-7.5-16.65-16.94-14.59-5.48,1.14-10.04,4.85-13.03,9.65-.52,.86-1.84,.18-1.46-.74h0Z"/>
      <path class="cls-12" d="M352.28,411.07c1.72,9.58-.95,19.97-7.09,27.58-16.71,20.78-49.32,16.88-63.61-4.59-2.68-4.04-4.64-8.53-5.67-13.2-.08-.36,.15-.71,.5-.79,.33-.07,.66,.12,.77,.43,3.1,8.61,8.98,16.03,16.58,21,17.41,11.36,41.56,7.87,52.27-10.75,3.39-5.88,4.87-12.66,4.62-19.5-.04-.99,1.44-1.18,1.63-.18h0Z"/>
      <ellipse class="cls-14" cx="313.48" cy="412.89" rx="27.07" ry="24.68" transform="translate(-100.12 100.35) rotate(-15.72)"/>
      <path class="cls-8" d="M291.28,419.7c2.3,8.44,9.88,15.19,19.81,16.56,13.21,1.82,25.57-6.6,27.6-18.8,.29-1.72,.35-3.43,.21-5.1-4.02-5.38-10.36-9.25-17.93-10.3-13.42-1.84-26.05,5.89-29.69,17.64Z"/>
      <path class="cls-12" d="M316.43,386.61c11.44,1.04,21.67,10.49,23.71,21.89,2.54,12.17-4.84,24.78-16.67,28.59-17.7,5.98-37.24-7.88-36.84-26.65,.1-2.88,.65-5.73,1.73-8.36,1.06-2.64,2.63-5.05,4.56-7.04,.36-.37,.96-.38,1.33-.02,.33,.32,.38,.84,.12,1.21-10.67,15.68,2,36.25,20.26,36.1,12.33-.01,21.82-10.67,20.02-22.92-1.26-9.74-9.08-17.93-18.64-20.51-1.36-.38-.99-2.41,.42-2.29h0Z"/>
      <g>
        <path class="cls-8" d="M243.73,482.03c-5.79,3.05-10.32,7.5-12.85,13.18-4.58,10.3-1.33,21.67,7.04,31.69,5.5,6.57,13.3,12.29,22.79,16.14,23.93,9.7,49.49,3.74,57.08-13.31,2.82-6.34,2.76-13.33,.34-20.1-4.09-11.43-18.19-14.87-33.22-20.96"/>
        <path class="cls-12" d="M231.63,495.54c-3.83,9.73-.09,20.37,6.22,28.18,12.74,15.8,34.48,24.14,54.54,21.42,9.99-1.44,20.01-6.39,24.8-15.69,.35-.72,1.5-.25,1.2,.54-1.92,5.14-5.68,9.52-10.19,12.62-25,16.4-65.1,2.75-77.63-23.68-2.34-5-3.61-10.67-2.88-16.2,.35-2.74,1.19-5.41,2.44-7.86,.2-.4,.7-.56,1.1-.36,.38,.19,.54,.64,.39,1.02h0Z"/>
        <ellipse class="cls-14" cx="274.35" cy="512.25" rx="25.82" ry="35.52" transform="translate(-291.03 646.47) rotate(-75.18)"/>
        <ellipse class="cls-8" cx="276.05" cy="519.46" rx="18.99" ry="30.11" transform="translate(-283.95 699.58) rotate(-79.84)"/>
        <path class="cls-12" d="M297.28,534.84c8.68-4.96,12.5-14.53,8.78-23.91-5.97-14.72-22.75-23.15-38.07-23.6-12.07-.49-26.18,5.83-26.32,19.39,.26,13.1,11.35,23.08,22.58,28.33,.75,.34,.29,1.49-.49,1.22-12.59-4.44-25.12-15.24-25.72-29.51-.42-11.63,8.89-20.21,19.62-22.66,10.19-2.52,21.13-.77,30.51,3.63,6.25,2.98,12,7.25,16.24,12.78,6.68,8.42,9.04,20.62,1.83,29.48-2.19,2.72-5.06,4.83-8.18,6.3-.96,.43-1.65-.92-.76-1.45h0Z"/>
      </g>
      <g>
        <path class="cls-8" d="M350.4,365.12c4.32-2.84,7.54-6.69,9.09-11.35,2.81-8.45-.62-17.15-7.97-24.38-4.83-4.75-11.41-8.65-19.16-10.94-19.57-5.79-39.21,.86-43.86,14.85-1.73,5.21-1.15,10.7,1.28,15.83,4.1,8.67,13.57,15.85,25.85,19.48,0,0,9.16,2.24,18.78,1.16,9.61-1.08,16-4.66,16-4.66Z"/>
        <path class="cls-12" d="M358.7,353.51c2.09-7.95-1.67-15.73-7.2-21.33-8.39-8.54-20.38-13.14-32.25-13.66-11.59-.5-25.17,3.54-30.12,15-.31,.74-1.47,.37-1.27-.43,1.05-4.22,3.66-8.04,6.99-10.91,16.93-13.86,45.65-8.53,59.52,7.36,5.83,6.4,9.53,16.1,5.91,24.49-.42,.94-1.82,.47-1.58-.53h0Z"/>
        <ellipse class="cls-14" cx="324" cy="343.7" rx="20.4" ry="28.07" transform="translate(-67.26 608.32) rotate(-80.76)"/>
        <ellipse class="cls-8" cx="322.12" cy="338.17" rx="15" ry="23.79" transform="translate(-40.68 632.27) rotate(-85.42)"/>
        <path class="cls-12" d="M304.33,327.86c-9.04,6.72-8.21,17.5-.52,24.95,6.99,6.84,17.37,10.2,27.07,9.51,9.26-.5,19.71-6.38,18.84-16.73-1.15-10.14-10.47-17.08-19.57-20.45-.78-.29-.42-1.47,.38-1.29,10.39,2.41,21.25,10.02,22.86,21.33,1.3,9.29-5.52,17.04-13.94,19.84-7.92,2.82-16.79,2.27-24.6-.51-7.82-2.85-15.12-8.21-18.6-15.98-3.07-6.64-1.76-14.77,3.82-19.65,1.03-.93,2.17-1.73,3.34-2.42,.4-.23,.91-.1,1.14,.29,.22,.37,.12,.85-.23,1.1h0Z"/>
      </g>
      <ellipse class="cls-8" cx="391.6" cy="445.28" rx="23.9" ry="12.46" transform="translate(-155.89 673.04) rotate(-71.26)"/>
      <path class="cls-12" d="M410.57,426.95c-3.93-6.49-10.92-7.17-16.92-3.07-9.24,6.38-14.41,18.5-14.83,29.52-.41,8.17,3.38,19.02,13.4,16.95,8.99-2.28,15.01-10.93,18.64-19.08,.33-.76,1.49-.35,1.26,.45-2.75,9.4-9.07,19.33-19.04,22.23-9.23,2.49-16.16-4.32-17.97-12.91-1.72-7.58-.43-15.54,2.4-22.62,2.93-7.06,7.57-13.66,14.26-17.62,7.52-4.46,16.48-3.09,20.28,5.37,.42,.96-.92,1.66-1.47,.78h0Z"/>
      <path class="cls-12" d="M303.31,558.09c-21.02,0-41.81-5.34-60.7-15.84-46.98-26.1-72.08-79.14-62.47-131.99,2.45-13.46,7.09-26.4,13.79-38.46,10.32-18.57,25.25-34.29,43.16-45.44,2.78-1.74,5.67-3.39,8.6-4.91,15.66-8.12,33.24-12.94,50.84-13.93h.22c.09-.02,.19-.02,.28-.03,1.14-.06,2.21-.1,3.24-.13,2.11-.06,4.29-.06,6.49,0,15.07,.38,29.79,3.45,43.75,9.13,4.72,1.91,9.38,4.14,13.87,6.63,.98,.55,1.94,1.09,2.91,1.67,.56,.33,1.14,.68,1.72,1.04,20.56,12.57,36.95,30.69,47.39,52.39,10.22,21.24,14.27,44.8,11.72,68.15-.53,4.86-1.37,9.77-2.49,14.6-2.64,11.36-6.86,22.33-12.57,32.59-16.26,29.26-42.95,50.45-75.14,59.64-11.42,3.26-23.05,4.88-34.61,4.88Zm.3-246.34c-1.09,0-2.17,.01-3.23,.04-.99,.02-2.02,.06-3.15,.13h-.21c-.09,.02-.19,.02-.28,.03-16.95,.95-33.91,5.6-49.02,13.44-2.83,1.46-5.62,3.06-8.3,4.73-17.28,10.76-31.67,25.92-41.63,43.84-6.46,11.64-10.94,24.12-13.3,37.1-9.27,50.98,14.95,102.15,60.27,127.33,18.55,10.31,38.67,15.2,58.53,15.2,42.52,0,83.83-22.44,105.91-62.17,5.51-9.9,9.59-20.48,12.13-31.44,1.08-4.66,1.89-9.4,2.4-14.08h0c5.07-46.36-17.32-92-57.04-116.3-.55-.34-1.1-.68-1.65-1-.94-.56-1.87-1.08-2.81-1.61-4.32-2.4-8.82-4.55-13.38-6.4-13.47-5.48-27.66-8.44-42.2-8.81-1.02-.02-2.03-.04-3.04-.04Z"/>
    </g>
    <g class="cls-18">
      <path class="cls-15" d="M220.56,373.42s8.51,18.39,24.25,21.67c15.74,3.28,26.01,3.51,26.01,3.51l13.46,7.98v16.81s3.79,13.74,11.75,18.32c7.96,4.58,19.02,3.87,19.02,3.87l-3.05,13.47s2.97,23.5,26.12,26.35c10.72,1.25,16.43-1.37,16.43-1.37,0,0,7.98,5.09,14.6,4.33,6.62-.76,1.35-26.12,1.35-26.12,0,0-12.78-37.99-22.7-44.55-9.91-6.56-40.65-24.61-40.65-24.61,0,0-52.58-28.44-54.5-26.64-1.92,1.8-32.1,6.97-32.1,6.97Z"/>
    </g>
    <g>
      <path class="cls-2" d="M341.92,298.83c7.06,3.63,21.82,9.34,21.31,20.96-.52,11.62-14.83,31.88-14.83,31.88l3.63,5.84s2.47-.26,3.37,.26c.91,.52,4.8,8.04,4.54,9.34-.26,1.3-2.47,2.75-2.47,2.75,16.87,25.17,29.45,59.39,31.53,70.81,2.08,11.42-3.37,29.32-3.37,29.32,0,0,3.63,7.52-1.69,14.14-5.32,6.62-24.26,3.24-28.15-7.01-3.89-10.25,1.17-30.36,1.17-30.36l-3.89-.78c-1.04,7.01-3.11,12.2-3.11,12.2,0,0,4.41,3.5,4.28,10.51-.13,7.01-4.32,12.45-15.4,11.59-11.07-.86-23.01-10.03-24.91-16.78-1.9-6.75,1.9-26.29,1.9-26.29,0,0-13.32,2.25-22.66-4.15-9.34-6.4-17.49-29.36-17.49-29.36,0,0-2.59,.9-3.31,.65-5.19-1.82-4.02-8.17-4.02-8.76s2.47-3.18,2.47-3.18l-1.3-2.34c-14.4,.26-39.57-2.98-45.9-13.49-6.33-10.51,1.53-35.81,1.53-35.81,.56-1.99,5.2-17.53,19.24-20.98,19.81-4.88,11.68,19.6,10.62,30.64-.43,4.51-2.31,9.03-2.31,9.03,4.33-5.45,9.09-7.15,9.09-7.15,0,0,56.98-10.93,62-24.85,5.02-13.92-12.8-17.04-8.48-27.76,4.32-10.73,26.61-.86,26.61-.86Z"/>
      <circle class="cls-1" cx="332.95" cy="368.09" r="5.19"/>
      <g class="cls-11">
        <g>
          <g class="cls-7">
            <path class="cls-12" d="M234.92,324.78s-7.83,24.82-6.14,41.95c1.69,17.13,37.88,15.26,37.88,15.26l2.18,6.22-1.92,1.35s-29.14,.86-39.32-8.75c-10.18-9.61-6.62-24.01-3.99-35.36,2.63-11.35,11.3-20.67,11.3-20.67Z"/>
          </g>
          <g class="cls-7">
            <path class="cls-12" d="M269.83,396.18s.78,1.95,5.19,2.27c4.41,.32,18.9-5.92,18.9-5.92,0,0,.75,3.14,.82,3.52,.06,.39-1.62,1.56-1.62,1.56,0,0-19.4,7.4-20.76,6.75-1.36-.65-2.85-7.2-2.85-7.2l.32-.97Z"/>
          </g>
          <g class="cls-7">
            <path class="cls-12" d="M285.73,380.09s7.52,5.55,12.58,6.73l1.09,.61s8.03,3.45,23.06,0c15.03-3.45,28.39-10.91,28.39-10.91l-3.92-8.44s4.7-1.71,7.72-3.35c3.03-1.64,3.22-3.03,3.22-3.03,0,0,1.58,3.45,1.66,3.68,.08,.23,0,1.34,0,1.34l-2.07,2.21-6.65,3.74,.36,1.77,1.78,3.76-.41,5s-.57,4.11-4.03,7.91c-3.46,3.8-21.28,12.16-21.28,12.16l-12.71,1.11s-4.21,2.26-7.99,6.41c-3.78,4.15-3.69,15.09,4.1,16.73,7.78,1.64,13.49,1.3,14.53,6.92,1.04,5.62-5.1,18.25-1.99,27.94,3.11,9.69,20.93,17.47,28.8,10.81,0,0,1.57,8.05-14.96,6.88-16.53-1.17-22.58-13.28-23.96-19.59-1.38-6.31,4.05-22.76,2.2-23.18-1.85-.43-17.91,3.06-27.01-9.11-9.1-12.17-11.95-22.82-11.95-22.82l-.92-1.38s16.7-6.65,16.96-6.78c.26-.13,2.27-1.23,2.1-2.49-.16-1.27-3.62-8.4-3.62-8.4l-3.42,.22s-1.64-3.39-1.99-4.85c-.35-1.46,.3-1.59,.3-1.59Z"/>
          </g>
          <g class="cls-7">
            <path class="cls-12" d="M337.1,404.4c.39-.04,14.47,6.64,16.8,9.69,2.34,3.05,8.34-2.33,8.34-2.33,0,0-2.23,4.75-3.79,7.43l-1.56,2.68s6.86,13.8,6.55,21.8c-.31,7.99-3.89,26.34-.65,32.82,3.24,6.49,17.35,10.76,23.73,2.33,0,0-1.74,9.8-14.39,8.14-12.65-1.65-16.9-8.08-17.87-15.67-.97-7.59,1.94-18.89,1.33-21.78-.61-2.9-1.77-4.49-1.77-4.49,0,0,1.61-7.92,.38-13.69-1.24-5.77-1.84-13.14-7.71-18.08-5.86-4.95-9.39-8.86-9.39-8.86Z"/>
          </g>
          <g class="cls-7">
            <path class="cls-12" d="M342.01,343.66s22.57-16.98,17.56-32.72c0,0,5.64,2.81,2.7,14.16-2.94,11.35-12.87,23.98-12.87,23.98,0,0-3.26-.42-3.39-.59-.13-.17-3.99-4.83-3.99-4.83Z"/>
          </g>
        </g>
        <g class="cls-7">
          <path class="cls-12" d="M328.19,366.03s1.77,3.79,5.95,3.45c4.17-.34,4.51-2.57,4.51-2.57,0,0,.29,4.79-4.79,5.76-5.08,.97-6.2-5.08-5.67-6.64Z"/>
        </g>
      </g>
      <path class="cls-12" d="M374.54,489.21c-1.27,0-2.59-.11-3.96-.32-5.94-.94-13.79-4.43-16.35-11.16-.17-.45-.33-.91-.46-1.39-.53,.82-1.15,1.56-1.87,2.21-2.99,2.71-7.42,3.86-13.2,3.4-11.73-.92-24.31-10.65-26.38-17.98-1.61-5.71,.52-19.43,1.46-24.84-4.38,.36-14.07,.45-21.56-4.69-8.39-5.75-15.6-23.49-17.59-28.74-.97,.23-1.93,.39-2.53,.29-1.67-.26-3.07-1.21-4.05-2.74-1.63-2.54-1.81-6.34-1.31-8.11,.36-1.28,1.23-2.36,1.96-3.09l-.17-.3c-.22,0-.45,0-.68,0-15.5,0-39.29-3.7-45.67-14.31-6.63-11.02,1.03-36.09,1.36-37.15,.85-3.03,5.92-18.53,20.43-22.1,5.25-1.29,9.22-.73,11.8,1.67,5.15,4.79,3.32,15.53,1.85,24.15-.41,2.43-.81,4.73-.98,6.57-.02,.24-.01,.54,.08,.62,.59,.45,2.85,.13,4.48-.46,.08-.03,.17-.05,.25-.07,15.59-2.99,56.9-13.09,60.75-23.79,2.32-6.45-.86-10.16-4.23-14.09-3.11-3.63-6.64-7.74-4.22-13.73,.95-2.35,2.66-4.04,5.1-5.03,8.42-3.42,23.1,2.99,23.72,3.27,.03,.01,.06,.03,.09,.04,.78,.4,1.65,.83,2.59,1.28,7.53,3.67,20.12,9.82,19.62,21.23-.48,10.68-11.67,27.7-14.51,31.86l2.47,3.97c.82-.05,1.94,.03,3.19,.54,2.38,.99,6.15,7.23,5.54,11.13-.21,1.36-1.01,2.34-1.79,2.99,16.46,25.13,28.79,58.73,30.84,70.02,1.94,10.64-2.31,26.27-3.25,29.52,.82,2.09,2.9,9-2.15,15.28-2.09,2.6-6.01,4.03-10.69,4.03Zm-21.48-44.87c.11,0,.22,.01,.32,.03l.82,.16c1.25,.25,2.32,.97,3.02,2.02,.7,1.05,.94,2.32,.69,3.56-1.12,5.45-3.41,18.95-.57,26.43,2.05,5.41,8.7,8.26,13.77,9.07,5.13,.81,9.67-.17,11.55-2.51,4.61-5.73,1.52-12.32,1.49-12.38-.18-.37-.21-.8-.09-1.2,.05-.18,5.31-17.66,3.33-28.54-2.05-11.26-14.59-45.29-31.27-70.18-.28-.41-.35-.93-.21-1.41,.15-.48,.5-.86,.96-1.05,.33-.14,1.34-.73,1.45-1.48,.38-2.45-2.5-6.99-3.56-7.56-1.2-.5-2.15-.22-2.19-.21-.73,.26-1.52-.04-1.93-.7l-3.63-5.84c-.35-.57-.33-1.29,.05-1.83,.14-.2,14.04-20,14.53-31,.41-9.24-10.52-14.57-17.76-18.1-.94-.46-1.82-.89-2.6-1.29-.84-.36-14.16-6.02-21.09-3.21-1.59,.65-2.66,1.69-3.27,3.2-1.58,3.93,.36,6.48,3.66,10.33,3.48,4.06,7.81,9.11,4.84,17.37-2.3,6.38-13.41,12.49-33.96,18.67-14.04,4.22-27.69,6.93-29.15,7.22-1.11,.39-5.25,1.67-7.52-.08-.72-.56-1.54-1.63-1.36-3.56,.19-1.97,.59-4.32,1.02-6.82,1.27-7.43,3-17.6-.84-21.17-1.71-1.59-4.66-1.89-8.75-.88-12.73,3.14-17.27,17.06-18.05,19.82-.09,.29-7.57,24.75-1.7,34.5,5.85,9.72,30.37,12.94,44.45,12.69,.01,0,.02,0,.03,0,.6,0,1.16,.33,1.45,.85l1.3,2.34c.41,.73,.2,1.66-.48,2.15-.39,.29-1.57,1.32-1.84,2.28-.27,.95-.19,3.71,.91,5.42,.46,.71,1.02,1.12,1.73,1.24,.37,0,1.57-.28,2.62-.59,.85-.26,1.74,.2,2.04,1.03,.08,.22,8.08,22.53,16.87,28.55,8.66,5.94,21.32,3.91,21.45,3.88,.53-.09,1.08,.09,1.46,.48s.54,.94,.44,1.47c-1.04,5.33-3.41,20.31-1.93,25.53,1.75,6.2,13.14,14.77,23.44,15.58,4.83,.38,8.43-.48,10.71-2.55,1.86-1.69,2.84-4.19,2.9-7.41,.11-6.04-3.51-9.06-3.66-9.19-.56-.46-.77-1.23-.5-1.91,.02-.05,2.02-5.11,3.01-11.82,.07-.45,.31-.85,.69-1.11,.28-.2,.62-.3,.95-.3Zm-1.18,13.41c.35,.38,.78,.88,1.22,1.52,.41-3.72,1.02-7.18,1.56-9.82,.08-.37,0-.75-.21-1.06-.03-.04-.06-.08-.09-.12-.8,4.38-1.91,7.83-2.49,9.48Z"/>
      <path class="cls-12" d="M275.67,405.36c-.68,0-1.32-.42-1.56-1.1-.31-.86,.14-1.81,1-2.12,7.23-2.6,15.26-5.58,18.11-6.8-.67-1.92-2.12-5.51-2.92-6.98-2.97,.78-12.77,3.73-19.01,5.63-.88,.27-1.8-.22-2.07-1.1-.27-.88,.22-1.8,1.1-2.07,19.48-5.95,20.29-5.95,20.59-5.95,1.26,0,2.01,.82,4,5.66,.32,.79,1.94,4.77,1.94,5.65,0,1.46,0,1.69-20.62,9.08-.18,.07-.37,.1-.56,.1Zm17.89-8.92h0Z"/>
      <path class="cls-12" d="M287.49,389.09c-.59,0-1.16-.31-1.46-.87-.88-1.63-5.17-9.97-3.24-14.26,.36-.79,1.44-3.2,26.91-13.67,6.22-2.55,12.64-5.05,17.63-6.85,8.6-3.1,9.36-2.89,9.96-2.72,2.34,.65,5.27,5.31,6.94,8.3l7.15-3.04c.84-.36,1.82,.03,2.17,.88,.36,.84-.03,1.82-.88,2.17l-8.53,3.63c-.79,.34-1.71,.01-2.12-.75-1.97-3.73-4.46-7.31-5.51-7.94-5.07,.65-47.71,17.8-50.74,21.41-.85,2.14,1.33,7.84,3.17,11.25,.44,.81,.14,1.81-.67,2.25-.25,.14-.52,.2-.79,.2Zm49.22-35.12"/>
      <path class="cls-12" d="M299.36,408.87c-.15,0-.29,0-.41-.03-5.68-.92-8.31-9.81-8.59-10.83-.24-.88,.27-1.8,1.15-2.04,.88-.25,1.8,.27,2.04,1.15,.57,2.03,2.87,7.94,5.92,8.44,.03,0,.07,0,.11,0,4.78,0,46.45-19.68,51.64-23.43-.61-2.59-5-11.99-9.22-20.24-.42-.82-.09-1.81,.72-2.23,.81-.42,1.81-.1,2.23,.72,10.41,20.34,9.78,22.23,9.54,22.95-.24,.72-.45,1.35-8.8,5.69-4.75,2.47-11.08,5.57-17.37,8.51-11.21,5.23-25.11,11.34-28.97,11.34Zm51.94-26.28h0Z"/>
      <path class="cls-12" d="M307.74,406.1c-.51,0-1-.28-1.24-.78-.5-1.02-12.21-24.99-13.13-27.77-.98-2.94-.73-8.44-.72-8.67,.04-.76,.68-1.35,1.45-1.31,.76,.04,1.35,.68,1.31,1.45-.07,1.45-.1,5.64,.58,7.67,.72,2.16,9.62,20.54,12.99,27.44,.33,.69,.05,1.51-.63,1.85-.19,.1-.4,.14-.6,.14Z"/>
      <path class="cls-12" d="M334.14,394.33c-.52,0-1.03-.3-1.26-.81l-6.03-13.28-14.19-1.04-6.2-15.79c-.28-.71,.07-1.51,.78-1.79,.71-.28,1.51,.07,1.79,.78l5.56,14.18,14.09,1.03,6.71,14.77c.32,.69,0,1.51-.69,1.83-.19,.08-.38,.12-.57,.12Z"/>
      <path class="cls-12" d="M332.95,374.66c-3.62,0-6.57-2.95-6.57-6.57s2.95-6.57,6.57-6.57,6.57,2.95,6.57,6.57-2.95,6.57-6.57,6.57Zm0-10.38c-2.1,0-3.81,1.71-3.81,3.81s1.71,3.81,3.81,3.81,3.81-1.71,3.81-3.81-1.71-3.81-3.81-3.81Z"/>
      <path class="cls-12" d="M349.4,374.94c-.65,0-1.26-.38-1.53-1.01-.36-.84,.04-1.82,.88-2.17l8.07-3.41c.84-.35,1.82,.04,2.17,.88,.36,.84-.04,1.82-.88,2.17l-8.07,3.41c-.21,.09-.43,.13-.64,.13Z"/>
      <path class="cls-12" d="M347.03,352.63c-4.14-4.87-7.58-10.29-11.55-15.31-.16-.2,.1-.5,.32-.35,2.82,1.71,5.36,3.85,7.72,6.14,2.37,2.31,4.56,4.73,6.23,7.62,.96,1.76-1.4,3.4-2.71,1.9h0Z"/>
      <path class="cls-12" d="M267.95,390.65c-1.32-2.69-2.1-5.56-2.81-8.45-.69-2.9-1.29-5.83-1.57-8.85-.03-.25,.34-.37,.45-.14,.74,1.32,1.4,2.65,2.06,3.99,1.89,4.01,3.89,8,4.98,12.31,.22,.9-.34,1.8-1.24,2.01-.77,.18-1.53-.2-1.87-.88h0Z"/>
      <path class="cls-12" d="M246.37,354.55c-14.12,0-23.41-4.84-23.87-5.09-.81-.43-1.11-1.43-.68-2.24,.43-.81,1.43-1.11,2.24-.68,.16,.09,12.77,6.6,30.46,4.13,.89-.13,1.74,.51,1.87,1.41,.13,.91-.51,1.74-1.41,1.87-3.03,.42-5.91,.6-8.61,.6Z"/>
      <path class="cls-12" d="M350.35,459.8c-5.42,1.32-13.79,.99-18.26-2.63-.18-.21-1.31-1.08-.76-1.17,1.74,.14,3.18,.53,4.68,.82,2.24,.45,4.53,.58,6.81,.51,2.26-.07,4.62-.34,6.81-.76,2.09-.35,2.76,2.66,.72,3.23h0Z"/>
      <path class="cls-12" d="M386.03,471.61c-5.42,1.32-13.79,.99-18.26-2.63-.18-.21-1.31-1.08-.76-1.17,1.74,.14,3.18,.53,4.68,.82,2.24,.45,4.53,.58,6.81,.51,2.26-.07,4.62-.34,6.81-.76,2.09-.35,2.76,2.66,.72,3.23h0Z"/>
      <path class="cls-12" d="M353.06,447.66c-.14,0-.28-.02-.42-.06-.88-.23-1.41-1.14-1.18-2.02h0c.04-.15,3.85-15.16-3.15-27.05-3.83-6.51-10.23-10.96-19.01-13.22-.89-.23-1.42-1.13-1.19-2.02,.23-.89,1.13-1.42,2.02-1.19,9.68,2.49,16.77,7.46,21.06,14.77,7.69,13.1,3.66,28.88,3.48,29.55-.2,.74-.87,1.24-1.6,1.24Z"/>
      <path class="cls-12" d="M351.85,424.34c3.99-4.6,8.43-9.04,10.71-14.84,1.14-1.21-.11,4.62-.3,4.98-1.55,4.73-4.25,9.19-8.19,12.32-1.63,1.19-3.56-.97-2.22-2.46h0Z"/>
      <path class="cls-12" d="M329.36,405.33c-4.5-.67-9.28-.46-13.62,.94-4.64,1.4-7.97,4.53-11.47,7.89-.09,.1-.28,0-.24-.14,1.47-5.04,6.01-8.55,10.7-10.49,4.84-1.94,10.2-2.41,15.32-1.44,2.13,.5,1.47,3.65-.69,3.24h0Z"/>
      <path class="cls-12" d="M376.76,454.95c-9.61,0-19.22-3.49-20.86-4.12-.03-.01-.06-.02-.09-.03-.7-.29-1.06-1.09-.78-1.8,.28-.7,1.12-1.03,1.82-.76,2.16,.82,21.39,7.86,31.71,1.04,.64-.42,1.49-.25,1.91,.39,.42,.64,.25,1.49-.39,1.91-3.79,2.5-8.56,3.37-13.33,3.37Z"/>
      <path class="cls-12" d="M335.52,446.85c-12.36,0-20.51-4.96-20.99-5.27-.65-.4-.84-1.26-.44-1.9,.4-.65,1.26-.84,1.9-.44,.17,.11,16.34,9.88,37.31,1.2,.71-.29,1.51,.04,1.8,.75,.29,.7-.04,1.51-.75,1.8-6.91,2.86-13.3,3.86-18.83,3.86Z"/>
      <path class="cls-12" d="M259.03,353.5c-.37,1.98-1.32,3.64-2.44,5.26-1.11,1.59-2.4,3.08-3.96,4.28-.18,.15-.47-.05-.39-.27,.25-.95,.56-1.83,.83-2.72,.86-2.5,1.54-5.44,2.88-7.71,.95-1.57,3.4-.63,3.08,1.16h0Z"/>
    </g>
    <g>
      <g>
        <path class="cls-2" d="M340.6,289.98c-.14,10.52-2.95,21.07-8.52,30.61-1.14,1.95-2.38,3.85-3.74,5.7-.66,.9-1.36,1.79-2.07,2.68-2.18,2.65-4.52,5.09-7.02,7.3-2.14,1.91-4.4,3.66-6.74,5.24-2.82,1.91-5.78,3.57-8.82,4.99-1.11,.51-2.23,1-3.37,1.45-20.74,8.24-45.17,5.5-63.67-9.26-27.26-21.75-31.33-61.35-9.1-88.46,4.29-5.22,9.23-9.6,14.63-13.11,.63-.42,1.27-.81,1.92-1.2,1.73-1.04,3.5-2,5.3-2.86,4.17-2,8.52-3.54,12.97-4.6,4.45-1.07,9-1.66,13.55-1.76,1.45-.04,2.9-.02,4.35,.04,2.18,.1,4.35,.3,6.52,.62,10.8,1.57,21.31,5.92,30.39,13.16,15.68,12.51,23.69,30.93,23.43,49.48Z"/>
        <path class="cls-12" d="M276.43,352.68c-14.33,0-28.45-4.74-39.89-13.87-13.17-10.5-21.39-25.48-23.15-42.16-1.78-16.82,3.21-33.35,14.03-46.54,4.23-5.15,9.16-9.57,14.67-13.14,.6-.4,1.25-.8,1.92-1.2,1.72-1.04,3.51-2,5.31-2.87,4.14-1.99,8.52-3.54,13-4.61,4.45-1.07,9.02-1.66,13.59-1.77,1.46-.04,2.93-.02,4.36,.04,2.22,.1,4.42,.31,6.53,.62,11.14,1.62,21.68,6.18,30.47,13.2,15.2,12.12,23.76,30.21,23.49,49.61h-.17s.17,0,.17,0c-.15,10.76-3.1,21.37-8.54,30.7-1.15,1.98-2.42,3.9-3.75,5.71-.62,.84-1.3,1.72-2.08,2.68-2.15,2.62-4.52,5.09-7.04,7.32-2.1,1.88-4.38,3.64-6.76,5.25-2.78,1.88-5.76,3.56-8.84,5-1.1,.51-2.24,1-3.38,1.45-7.75,3.08-15.88,4.58-23.95,4.58Zm1.06-125.85c-.52,0-1.05,0-1.57,.02-4.55,.11-9.09,.7-13.52,1.76-4.47,1.06-8.82,2.61-12.94,4.59-1.79,.86-3.57,1.82-5.28,2.86-.67,.4-1.32,.8-1.91,1.2-5.48,3.56-10.39,7.95-14.59,13.07-10.77,13.13-15.72,29.57-13.96,46.29,1.75,16.59,9.93,31.48,23.03,41.93,17.79,14.19,42.12,17.73,63.51,9.24,1.13-.45,2.26-.94,3.36-1.45,3.07-1.43,6.03-3.1,8.8-4.97,2.37-1.6,4.63-3.36,6.72-5.22,2.5-2.22,4.86-4.67,7-7.28,.78-.96,1.45-1.83,2.07-2.67,1.33-1.81,2.59-3.72,3.73-5.68,5.41-9.27,8.35-19.83,8.49-30.53,.27-19.3-8.25-37.28-23.37-49.34-8.74-6.98-19.22-11.52-30.31-13.13-2.1-.31-4.29-.52-6.5-.62-.91-.04-1.84-.06-2.77-.06Z"/>
      </g>
      <g class="cls-7">
        <path class="cls-12" d="M236.64,338.68c18.5,14.77,42.93,17.51,63.68,9.26,1.13-.45,2.25-.93,3.37-1.45,3.05-1.42,6-3.08,8.82-4.99,2.34-1.58,4.6-3.32,6.74-5.24,2.5-2.21,4.84-4.65,7.02-7.3,.71-.89,1.41-1.77,2.07-2.68,1.36-1.85,2.6-3.75,3.74-5.7,5.57-9.55,8.38-20.09,8.52-30.61,.08-5.78-.64-11.55-2.15-17.13-.37,10.04-3.17,20.06-8.48,29.16-1.13,1.95-2.38,3.85-3.74,5.7-.66,.9-1.36,1.79-2.07,2.68-2.18,2.65-4.52,5.09-7.02,7.3-2.15,1.91-4.4,3.65-6.74,5.24-2.82,1.91-5.78,3.57-8.82,4.99-1.11,.51-2.24,1-3.37,1.45-20.74,8.24-45.17,5.51-63.68-9.26-10.8-8.61-17.95-20.03-21.28-32.36-.71,19.04,7.3,38.1,23.39,50.94Z"/>
      </g>
      <path class="cls-12" d="M276.43,353.82c-14.58,0-28.96-4.83-40.6-14.12-13.41-10.69-21.78-25.94-23.57-42.93-1.81-17.12,3.26-33.95,14.28-47.38,4.3-5.24,9.32-9.73,14.93-13.37,.61-.4,1.27-.82,1.96-1.23,1.74-1.05,3.56-2.03,5.4-2.92,4.21-2.02,8.67-3.6,13.23-4.69,4.52-1.08,9.17-1.69,13.82-1.8,1.49-.04,2.98-.02,4.44,.04,2.26,.1,4.5,.31,6.65,.63,11.34,1.65,22.06,6.29,31.01,13.43,15.47,12.34,24.19,30.75,23.92,50.51l-1.3-.02,1.3,.02c-.15,10.95-3.16,21.76-8.69,31.25-1.17,2.01-2.46,3.97-3.82,5.81-.63,.86-1.32,1.75-2.11,2.73-2.19,2.67-4.6,5.18-7.17,7.45-2.14,1.91-4.45,3.71-6.88,5.34-2.83,1.91-5.86,3.63-9,5.09-1.12,.52-2.28,1.02-3.43,1.48-7.88,3.13-16.16,4.66-24.37,4.66Zm1.06-125.85c-.51,0-1.03,0-1.54,.02-4.47,.11-8.93,.69-13.28,1.73-4.39,1.05-8.67,2.56-12.71,4.51-1.76,.85-3.51,1.79-5.19,2.81-.66,.39-1.29,.79-1.87,1.17-5.39,3.5-10.21,7.82-14.34,12.85-10.57,12.89-15.44,29.03-13.7,45.46,1.72,16.29,9.75,30.91,22.61,41.16,17.47,13.94,41.37,17.42,62.38,9.07,1.11-.44,2.22-.92,3.3-1.42,3.01-1.4,5.92-3.05,8.64-4.88,2.33-1.57,4.55-3.3,6.6-5.13,2.46-2.18,4.77-4.59,6.88-7.15,.76-.94,1.43-1.8,2.03-2.62,1.31-1.78,2.54-3.65,3.67-5.58,5.31-9.1,8.2-19.47,8.34-29.98h0c.26-18.95-8.1-36.6-22.94-48.44-8.58-6.85-18.88-11.31-29.76-12.89-2.07-.31-4.22-.51-6.39-.61-.89-.04-1.8-.06-2.72-.06Z"/>
      <path class="cls-12" d="M276.43,354.17c-14.66,0-29.12-4.86-40.82-14.2-13.48-10.75-21.9-26.08-23.7-43.17-1.82-17.21,3.28-34.13,14.36-47.64,4.32-5.26,9.37-9.79,15.01-13.45,.61-.4,1.28-.82,1.97-1.23,1.75-1.06,3.58-2.04,5.42-2.93,4.24-2.03,8.71-3.62,13.3-4.72,4.55-1.09,9.22-1.7,13.9-1.81,1.5-.04,3-.02,4.46,.04,2.27,.1,4.52,.31,6.69,.64,11.4,1.66,22.18,6.33,31.18,13.51,15.56,12.41,24.33,30.93,24.05,50.79-.15,11.01-3.17,21.88-8.74,31.43-1.18,2.02-2.47,3.99-3.84,5.84-.63,.86-1.32,1.76-2.12,2.74-2.21,2.69-4.63,5.21-7.2,7.49-2.15,1.92-4.48,3.73-6.91,5.37-2.85,1.92-5.89,3.65-9.05,5.12-1.13,.52-2.29,1.02-3.45,1.49-7.93,3.15-16.25,4.69-24.5,4.69Zm1.06-125.85c-.51,0-1.02,0-1.54,.02-4.44,.1-8.88,.68-13.21,1.72-4.37,1.04-8.62,2.55-12.64,4.48-1.75,.84-3.49,1.78-5.16,2.79-.66,.39-1.28,.78-1.86,1.16-5.36,3.48-10.16,7.78-14.26,12.78-10.51,12.82-15.35,28.87-13.63,45.19,1.71,16.19,9.69,30.73,22.47,40.92,17.37,13.86,41.14,17.32,62.03,9.02,1.11-.44,2.21-.92,3.28-1.41,2.99-1.39,5.89-3.03,8.59-4.86,2.31-1.56,4.52-3.28,6.57-5.1,2.45-2.17,4.75-4.56,6.84-7.11,.76-.93,1.42-1.79,2.02-2.61,1.3-1.77,2.53-3.63,3.65-5.55,5.28-9.05,8.15-19.36,8.29-29.8h0c.26-18.84-8.05-36.39-22.81-48.16-8.53-6.81-18.77-11.24-29.59-12.82-2.06-.3-4.19-.51-6.35-.6-.89-.04-1.79-.06-2.7-.06Z"/>
      <path class="cls-12" d="M338.29,305.97c-20.94,40.1-74.54,47.55-97.8,9.59-15.83-25.83-2.33-61.29,23.88-74.93,19.08-9.93,42.03-11.41,65.47,13.51,0,0,8.64,12.63,9.7,23.5,1.06,10.87,.24,21.64,.24,21.64l-1.49,6.7Z"/>
      <path class="cls-9" d="M240.49,315.55c23.27,37.97,76.86,30.51,97.8-9.58l.3-1.36c-32.96,25.51-80.62,23.16-104.87-14.79-.21,8.88,1.88,17.76,6.76,25.74Z"/>
      <path class="cls-12" d="M283.73,348.3c-4.51,0-8.99-.49-13.35-1.49-15.39-3.53-28.12-12.89-36.81-27.06-7.98-13.01-9.94-28.95-5.52-44.87,4.91-17.69,17.21-33.13,32.9-41.3,8.72-4.54,17.39-7.1,25.75-7.6h.14s.14,.01,.14,.01c11.36,1.65,22.09,6.3,31.05,13.45,15.49,12.36,24.22,30.79,23.95,50.57-.15,10.97-3.16,21.79-8.71,31.29-1.18,2.01-2.46,3.97-3.82,5.82-.63,.86-1.32,1.75-2.11,2.73-2.2,2.68-4.61,5.19-7.17,7.46l-.17,.13c-11.13,7.13-23.83,10.86-36.27,10.86Zm3-119.56c-7.93,.5-16.17,2.95-24.5,7.29-15.03,7.82-26.81,22.62-31.52,39.59-4.21,15.18-2.36,30.34,5.21,42.69,8.29,13.52,20.42,22.45,35.07,25.81,15.62,3.59,32.89,.32,47.42-8.95,2.43-2.16,4.71-4.54,6.79-7.07,.76-.94,1.42-1.79,2.03-2.62,1.31-1.77,2.54-3.65,3.66-5.58,5.3-9.09,8.19-19.44,8.33-29.94h0c.26-18.92-8.09-36.56-22.91-48.38-8.54-6.81-18.76-11.26-29.58-12.86Zm32.52,107.54h0Z"/>
      <path class="cls-12" d="M284.08,341.25c-18.38,0-34.46-9.12-44.34-25.24-7.04-11.49-8.77-25.57-4.87-39.64,4.34-15.65,15.22-29.3,29.09-36.52,23.89-12.43,46.26-7.83,66.5,13.68l.08,.11c.36,.52,8.78,12.94,9.85,23.91,1.06,10.82,.25,21.68,.24,21.79l-.02,.12-1.51,6.81-.05,.1c-10.83,20.75-31.16,34.1-53.05,34.85-.64,.02-1.28,.03-1.92,.03Zm5.37-106.44c-8.02,0-16.26,2.19-24.69,6.58-13.46,7-24.01,20.25-28.22,35.44-3.77,13.6-2.11,27.19,4.68,38.26,9.89,16.13,26.17,25.03,44.72,24.38,21.23-.73,40.96-13.68,51.52-33.82l1.45-6.53c.06-.88,.76-11.18-.24-21.43-.99-10.17-8.91-22.13-9.52-23.04-12.46-13.23-25.75-19.86-39.7-19.86Zm48.83,71.15h0Z"/>
      <path class="cls-2" d="M214.17,326.27c5.14,11.28,16.22,17.69,24.75,14.31,8.53-3.38,11.27-15.28,6.13-26.56-.03-.07-.07-.15-.1-.22-5.18-11.15-16.18-17.45-24.64-14.09-6.59,2.61-9.72,10.31-8.44,18.87,.38,2.52,1.14,5.12,2.31,7.69Z"/>
      <g class="cls-7">
        <path class="cls-12" d="M214.17,326.27c5.14,11.28,16.22,17.69,24.75,14.31,8.53-3.38,11.27-15.28,6.13-26.56-.03-.07-.07-.15-.1-.22-.41,1.53-1.35,3.25-3.5,3.65-3.77,.7-13.29-4.09-13.29-4.09,0,0-7.08,2.22-16.29,5.22,.38,2.52,1.14,5.12,2.31,7.69Z"/>
      </g>
      <path class="cls-12" d="M234.14,343.12c-8.16,0-17-6.33-21.48-16.17-3.17-6.96-3.63-14.33-1.25-20.23,1.65-4.1,4.51-7.06,8.28-8.56,9.32-3.7,21.37,3.1,26.87,15.16,3.17,6.96,3.63,14.33,1.25,20.23-1.65,4.1-4.51,7.06-8.28,8.56-1.72,.68-3.54,1.01-5.39,1.01Zm-8.98-42.67c-1.47,0-2.9,.26-4.26,.8-2.9,1.15-5.12,3.47-6.42,6.71-2.01,4.99-1.56,11.57,1.19,17.62,4.77,10.47,14.93,16.51,22.63,13.45,2.9-1.15,5.12-3.47,6.42-6.71,2.01-4.99,1.56-11.57-1.19-17.62-3.93-8.63-11.52-14.25-18.37-14.25Z"/>
      <g>
        <ellipse class="cls-2" cx="225.51" cy="324.04" rx="13.49" ry="17.85" transform="translate(-131.8 156.16) rotate(-30)"/>
        <path class="cls-12" d="M229.01,341.09c-4.26,0-8.7-2.17-12.25-6.01-6.63-7.15-8.11-17.92-3.3-24,2-2.53,4.78-3.94,8.06-4.06,4.42-.18,9.05,2.01,12.74,6,6.63,7.15,8.11,17.92,3.3,24-2,2.53-4.78,3.94-8.06,4.06-.16,0-.33,0-.49,0Zm-7.01-33.74c-.16,0-.32,0-.48,0-3.17,.12-5.86,1.48-7.8,3.93-4.7,5.95-3.23,16.52,3.28,23.55h0c3.62,3.91,8.17,6.05,12.47,5.89,3.17-.12,5.87-1.48,7.8-3.93,4.7-5.95,3.23-16.52-3.28-23.55-3.49-3.77-7.84-5.9-11.99-5.9Z"/>
      </g>
      <g class="cls-7">
        <path class="cls-12" d="M240.27,325.67c-.6-3.33-2.12-6.5-4.23-9.17,.72,7.71-4.2,13.2-11.51,12.49-4.72-.45-9.36-3.39-12.61-7.53,.04,.49,.11,.99,.2,1.49,1.53,8.47,9.06,15.95,16.83,16.7,7.77,.75,12.83-5.51,11.31-13.98Z"/>
      </g>
      <path class="cls-12" d="M229.63,342.53c-6.51,0-13.77-5.4-17.57-13.65h0c-2.72-5.9-3.19-12.26-1.26-17.02,1.25-3.09,3.4-5.3,6.2-6.39,7.25-2.81,16.87,2.99,21.46,12.94,2.72,5.9,3.19,12.26,1.26,17.02-1.25,3.09-3.4,5.3-6.2,6.39-1.24,.48-2.55,.71-3.88,.71Zm-14.56-15.04c3.86,8.39,11.6,13.43,17.25,11.24,1.93-.75,3.43-2.32,4.33-4.54,1.59-3.93,1.14-9.31-1.2-14.39-3.86-8.39-11.6-13.43-17.25-11.24-1.93,.75-3.43,2.32-4.33,4.54-1.59,3.93-1.14,9.31,1.2,14.39h0Z"/>
      <g class="cls-5">
        <path class="cls-2" d="M256.16,258.41s25.82-11.43,47.02-4.43c.02,0,.04,.01,.07,.02,4.46,1.48,8.43,4.12,11.5,7.63,4.07,4.64,6.18,8.43,7.9,11.84,5.25,10.37,5.73,16.22,5.73,16.22,3.23-8.48,3.46-16.39-.82-25.07-.42-.85-.89-1.72-1.4-2.59-.12-.2-.24-.4-.36-.6,0,0,0,0,0-.01-1.16-1.7-2.77-3.87-4.8-6.17-6.11-6.93-15.96-15.03-28.56-14.78-23.56,.47-37.68,17.28-36.27,17.93Z"/>
      </g>
      <g class="cls-5">
        <ellipse class="cls-2" cx="250.26" cy="291.56" rx="8.52" ry="9.79" transform="translate(-51.62 53.85) rotate(-11.14)"/>
      </g>
      <g class="cls-5">
        <ellipse class="cls-2" cx="253.85" cy="308.98" rx="3.52" ry="4.04" transform="translate(-29.97 27.28) rotate(-5.81)"/>
      </g>
    </g>
    <g class="cls-7">
      <path class="cls-12" d="M255.33,357.93s12.77,5.81,36.63,1.14c23.86-4.67,34.3-30.11,34.3-30.11,0,0-27.95,20.63-46.9,21.48-18.94,.85-20.85,1.06-20.85,1.06l-3.19,6.43Z"/>
    </g>
  </g>
  <text class="cls-3" transform="translate(45.74 106.41)"><tspan x="0" y="0">Hábit</tspan><tspan class="cls-17" x="166.01" y="0">o</tspan><tspan x="192.96" y="0">s </tspan></text>
  <text class="cls-3" transform="translate(36.45 198.45)"><tspan x="0" y="0">Salu</tspan><tspan class="cls-16" x="129.64" y="0">d</tspan><tspan x="162.47" y="0">able</tspan><tspan x="0" y="76.59">EL</tspan><tspan x="0" y="153.17">Sueño</tspan></text>
  <text class="cls-4" transform="translate(222.73 635.06)"><tspan x="0" y="0">JHONATAN DAVID PARRA </tspan></text>
  <text class="cls-4" transform="translate(205.53 662.62)"><tspan x="0" y="0">CRISTER STEVEN GARAVITO</tspan></text>
  <path class="cls-19" d="M373.83,151.23c25.11,0,45.46-18.02,45.46-40.26,0-22.23-20.36-40.26-45.46-40.26-1.27,0-2.52,.06-3.76,.15,8.14-4.47,17.73-7.05,28.01-7.05,29.41,0,53.26,21.11,53.26,47.16,0,26.05-23.84,47.16-53.26,47.16-10.28,0-19.87-2.58-28.01-7.05,1.24,.09,2.49,.15,3.76,.15Z"/>
  <path class="cls-6" d="M60.66,530.27c-21.96,0-42.57,5.75-60.42,15.82v150.19H176.11c4.96-13.35,7.68-27.8,7.68-42.88,0-68-55.13-123.13-123.13-123.13Z"/>
</svg>