<?xml version="1.0" encoding="UTF-8"?>
<svg id="Capa_1" data-name="Capa 1" xmlns="http://www.w3.org/2000/svg" viewBox="0 0 592.68 591.12">
  <defs>
    <style>
      .cls-1 {
        fill: #197dff;
      }

      .cls-2 {
        fill: #0952b3;
      }
    </style>
  </defs>
  <path class="cls-2" d="M207.09,1.58l4.23,210.29c13.42-12.57,26.83-18.85,40.25-18.85,20.34,0,36.47,9.47,48.41,28.41,11.93,18.94,17.9,44.53,17.9,76.76v172.62l-79.23-.12v-143.82c0-11.65-.95-19.48-2.86-23.49-1.91-4-5.61-6.01-11.12-6.01-8.9,0-13.35,8.47-13.35,25.4l3.56,268.35-82.79-.08V1.58h75.01Z"/>
  <path class="cls-1" d="M523.08,395.62l3.16,195.19c-4.42,.99-38.3-1.59-41.96-1.54-21.67,.3-50.5,5.34-49.49-17.33,.72-16.23,.35-170.79,0-196.79-.34-25.3,6.67-46.86,21.03-64.67,14.36-17.81,31.99-26.86,52.89-27.15,23.31-.32,41.8,7.68,55.45,23.99,13.66,16.32,20.68,38.76,21.06,67.32l1.1,216.16h-49.05s-6.02-210.69-6.02-210.69c-.12-9.21-2.08-16.53-5.85-21.96-3.78-5.43-8.8-8.1-15.07-8.01-5.68,.08-10.56,2.65-14.64,7.72-4.08,5.07-6.07,11.05-5.98,17.93,.1,7.23,2.05,13.15,5.87,17.76,3.82,4.61,8.62,6.88,14.4,6.8,4.72-.07,9.08-1.64,13.09-4.73Z"/>
  <path class="cls-1" d="M393.79,256.71v64.11l29.25-31.21v173.67l-29.25-37.45c0,21.1,2.18,35.63,6.53,43.6,4.35,7.98,12.33,11.97,23.94,11.97v104.48c-3.37,.18-5.86,.26-7.49,.26-14.74,0-28.64-5.22-41.7-15.69-13.06-10.46-23.54-24.63-31.43-42.54-9.98-22.86-14.97-53.17-14.97-90.92l-9.19-217.74,74.31,37.45Z"/>
  <path class="cls-2" d="M109.42,0l5.19,454.91c0,39.34-8.34,71.83-25,97.45-16.67,25.63-37.78,38.44-63.34,38.44-7.49,0-16.24-2.17-26.27-6.52v-107.26c0-.32,.25-.59,.56-.59l11.1,.04c11.3,0,16.95-12.2,16.95-36.6L23.41,0H109.42Z"/>
  <path class="cls-1" d="M590.48,184.17l-.9,40.32-129.13-1.92c-8.2-.19-12.36,2.27-12.47,7.37-.11,5.03,3.93,7.64,12.13,7.83l132.37,1.93-.9,40.32-131.37-1.9c-18.59-.43-34.15-5.43-46.68-14.99-12.52-9.57-18.64-21.07-18.34-34.51,.34-15.38,8.01-27.53,23-36.46,11.7-6.99,27.85-10.25,48.45-9.77l123.83,1.8Z"/>
  <path class="cls-2" d="M524.45,94.05l-41.19,1.27c-.65-2.86-1.02-5.48-1.09-7.85-.42-14.07,4.48-25.96,14.71-35.67,10.22-9.71,23.25-14.8,39.07-15.29,15.4-.48,28.6,3.86,39.59,13,11,9.15,16.7,20.5,17.1,34.08,.45,15.14-4.22,27.22-14,36.26-9.78,9.04-23.37,13.82-40.75,14.36l-52.05,1.61-1.04-35.09,49.18-1.52c5.61-.17,10.04-1.52,13.3-4.03,3.26-2.51,4.83-5.8,4.71-9.87-.11-3.69-1.73-6.83-4.86-9.43-3.13-2.6-6.79-3.83-10.98-3.7-4.4,.14-7.98,1.47-10.75,3.99-2.77,2.53-4.09,5.67-3.98,9.42,.09,3.06,1.1,5.88,3.02,8.45Z"/>
  <path class="cls-2" d="M281.47,476.41c12.52,0,23.25,5.53,32.19,16.58,8.94,11.05,13.42,24.3,13.42,39.74s-4.53,28.99-13.59,40.01c-9.06,11.02-20,16.53-32.81,16.53s-23.76-5.53-32.86-16.58c-9.09-11.05-13.64-24.37-13.64-39.96s4.55-29.23,13.64-40.07c9.09-10.84,20.31-16.25,33.65-16.25Zm-.89,40.12c-3.54,0-6.55,1.58-9.03,4.73-2.48,3.15-3.72,7.01-3.72,11.58s1.25,8.34,3.76,11.53c2.51,3.19,5.5,4.78,8.99,4.78s6.57-1.59,9.08-4.78c2.51-3.19,3.76-7.03,3.76-11.53s-1.24-8.43-3.72-11.58c-2.48-3.15-5.52-4.73-9.12-4.73Z"/>
  <path class="cls-2" d="M569.09,5.67l-144.92,70.98-114.57-1.44c-11.67-.15-17.56,4.47-17.67,13.85-.11,9.25,5.67,13.94,17.33,14.09l114.57,1.44,127.81,74.1-241.85-1.42c-26.46-.33-48.64-9.13-66.54-26.4-17.91-17.27-26.71-38.25-26.41-62.95,.34-28.27,11.13-50.79,32.36-67.57C265.78,7.22,288.72,.84,318.03,1.2l251.07,4.46Z"/>
</svg>