<?xml version="1.0" encoding="UTF-8"?>
<svg id="Capa_1" data-name="Capa 1" xmlns="http://www.w3.org/2000/svg" viewBox="0 0 665.58 663.83">
  <defs>
    <style>
      .cls-1 {
        fill: #fff;
      }
    </style>
  </defs>
  <path class="cls-1" d="M122.88,0l5.83,510.87c0,44.18-9.36,80.66-28.07,109.44-18.72,28.79-42.43,43.17-71.14,43.17-8.41,0-18.24-2.44-29.5-7.33v-120.46c0-.36,.28-.66,.62-.66l12.46,.04c12.69,0,19.03-13.7,19.03-41.1L26.29,0H122.88Z"/>
  <path class="cls-1" d="M232.57,1.77l4.75,236.16c15.07-14.11,30.13-21.17,45.2-21.17,22.84,0,40.96,10.64,54.36,31.9,13.4,21.27,20.1,50,20.1,86.2v193.85l-88.98-.13v-161.51c0-13.08-1.07-21.88-3.21-26.38-2.14-4.5-6.3-6.75-12.49-6.75-9.99,0-14.99,9.51-14.99,28.53l4,301.36-92.98-.09V1.77h84.23Z"/>
  <path class="cls-1" d="M316.09,535c14.05,0,26.11,6.21,36.15,18.62,10.04,12.41,15.07,27.29,15.07,44.63s-5.09,32.56-15.27,44.93c-10.18,12.37-22.46,18.56-36.85,18.56s-26.69-6.21-36.9-18.62c-10.21-12.41-15.32-27.37-15.32-44.87s5.11-32.82,15.32-44.99c10.21-12.17,22.81-18.25,37.79-18.25Zm-.99,45.06c-3.98,0-7.36,1.77-10.14,5.31-2.78,3.54-4.18,7.88-4.18,13s1.41,9.36,4.23,12.94c2.82,3.58,6.18,5.37,10.09,5.37s7.38-1.79,10.19-5.37c2.82-3.58,4.23-7.89,4.23-12.94s-1.39-9.46-4.18-13c-2.78-3.54-6.2-5.31-10.24-5.31Z"/>
  <path class="cls-1" d="M639.09,6.36l-162.75,79.71-128.66-1.61c-13.1-.16-19.72,5.02-19.85,15.55-.13,10.38,6.36,15.66,19.47,15.82l128.66,1.61,143.53,83.22-271.6-1.59c-29.71-.37-54.62-10.25-74.73-29.65-20.11-19.39-30-42.95-29.66-70.69,.38-31.74,12.5-57.04,36.35-75.88C298.47,8.11,324.24,.94,357.14,1.35l281.95,5.01Z"/>
  <path class="cls-1" d="M588.96,105.62l-46.26,1.43c-.73-3.21-1.14-6.15-1.22-8.82-.47-15.8,5.03-29.15,16.51-40.06,11.48-10.9,26.11-16.62,43.88-17.17,17.29-.53,32.11,4.33,44.46,14.6,12.35,10.27,18.75,23.03,19.2,38.27,.51,17-4.73,30.57-15.72,40.72-10.99,10.15-26.24,15.52-45.76,16.12l-58.45,1.8-1.17-39.41,55.22-1.7c6.29-.19,11.27-1.7,14.94-4.52,3.66-2.82,5.43-6.51,5.29-11.08-.12-4.14-1.94-7.67-5.46-10.59-3.52-2.92-7.63-4.3-12.33-4.15-4.94,.15-8.97,1.65-12.07,4.49-3.11,2.84-4.6,6.36-4.47,10.58,.1,3.44,1.23,6.61,3.39,9.49Z"/>
  <path class="cls-1" d="M442.23,288.28v72l32.85-35.05v195.03l-32.85-42.05c0,23.69,2.44,40.01,7.33,48.96,4.89,8.96,13.85,13.44,26.89,13.44v117.33c-3.78,.2-6.58,.3-8.41,.3-16.55,0-32.16-5.87-46.83-17.61-14.67-11.74-26.43-27.66-35.29-47.77-11.21-25.68-16.81-59.71-16.81-102.11l-10.32-244.52,83.45,42.05Z"/>
  <path class="cls-1" d="M587.42,444.28l3.54,219.2c-4.96,1.12-43.01-1.79-47.12-1.73-24.34,.34-56.71,6-55.58-19.46,.81-18.22,.4-191.79,.01-220.99-.38-28.41,7.5-52.62,23.62-72.62,16.13-20,35.92-30.16,59.4-30.48,26.18-.36,46.94,8.62,62.27,26.94,15.34,18.32,23.22,43.52,23.65,75.6l1.24,242.75h-55.09s-6.76-236.61-6.76-236.61c-.14-10.34-2.33-18.56-6.57-24.66-4.25-6.1-9.89-9.1-16.92-9-6.38,.09-11.86,2.98-16.44,8.67-4.58,5.7-6.81,12.41-6.71,20.13,.11,8.12,2.31,14.77,6.59,19.95,4.29,5.18,9.68,7.72,16.17,7.63,5.3-.07,10.2-1.84,14.7-5.31Z"/>
  <path class="cls-1" d="M663.11,206.83l-1.01,45.28-145.01-2.16c-9.21-.21-13.88,2.55-14.01,8.28-.13,5.65,4.42,8.58,13.63,8.79l148.65,2.16-1.01,45.28-147.52-2.14c-20.88-.48-38.35-6.09-52.42-16.84-14.06-10.74-20.93-23.66-20.59-38.75,.38-17.27,8.99-30.92,25.82-40.95,13.14-7.85,31.27-11.51,54.4-10.98l139.07,2.02Z"/>
</svg>