<?xml version="1.0" encoding="UTF-8"?>
<svg id="Capa_1" data-name="Capa 1" xmlns="http://www.w3.org/2000/svg" viewBox="0 0 244.87 279.23">
  <defs>
    <style>
      .cls-1 {
        fill: #fff;
      }
    </style>
  </defs>
  <rect class="cls-1" width="244.87" height="279.23"/>
  <g>
    <path d="M85.65,67.43l1.27,111.1c0,9.61-2.04,17.54-6.11,23.8-4.07,6.26-9.23,9.39-15.47,9.39-1.83,0-3.97-.53-6.42-1.59v-26.2c0-.08,.06-.14,.14-.14h2.71c2.76,0,4.14-2.97,4.14-8.93l-1.27-107.43h21.01Z"/>
    <path d="M109.51,67.81l1.03,51.36c3.28-3.07,6.55-4.6,9.83-4.6,4.97,0,8.91,2.31,11.82,6.94,2.91,4.63,4.37,10.87,4.37,18.75v42.16l-19.35-.03v-35.13c0-2.85-.23-4.76-.7-5.74-.47-.98-1.37-1.47-2.72-1.47-2.17,0-3.26,2.07-3.26,6.2l.87,65.54-20.22-.02V67.81h18.32Z"/>
    <path d="M127.67,183.78c3.06,0,5.68,1.35,7.86,4.05,2.18,2.7,3.28,5.93,3.28,9.71s-1.11,7.08-3.32,9.77c-2.21,2.69-4.88,4.04-8.01,4.04s-5.8-1.35-8.02-4.05c-2.22-2.7-3.33-5.95-3.33-9.76s1.11-7.14,3.33-9.79c2.22-2.65,4.96-3.97,8.22-3.97Zm-.22,9.8c-.87,0-1.6,.38-2.21,1.16-.61,.77-.91,1.71-.91,2.83s.31,2.04,.92,2.81c.61,.78,1.34,1.17,2.2,1.17s1.6-.39,2.22-1.17c.61-.78,.92-1.72,.92-2.81s-.3-2.06-.91-2.83c-.61-.77-1.35-1.16-2.23-1.16Z"/>
    <path d="M197.92,68.81l-35.39,17.34-27.98-.35c-2.85-.04-4.29,1.09-4.32,3.38-.03,2.26,1.38,3.41,4.23,3.44l27.98,.35,31.21,18.1-59.07-.35c-6.46-.08-11.88-2.23-16.25-6.45-4.37-4.22-6.52-9.34-6.45-15.37,.08-6.9,2.72-12.4,7.9-16.5,4.05-3.21,9.65-4.77,16.81-4.68l61.32,1.09Z"/>
    <path d="M187.02,90.4l-10.06,.31c-.16-.7-.25-1.34-.27-1.92-.1-3.44,1.09-6.34,3.59-8.71,2.5-2.37,5.68-3.62,9.54-3.73,3.76-.12,6.98,.94,9.67,3.18,2.69,2.23,4.08,5.01,4.18,8.32,.11,3.7-1.03,6.65-3.42,8.86-2.39,2.21-5.71,3.38-9.95,3.51l-12.71,.39-.26-8.57,12.01-.37c1.37-.04,2.45-.37,3.25-.98,.8-.61,1.18-1.42,1.15-2.41-.03-.9-.42-1.67-1.19-2.3-.76-.63-1.66-.93-2.68-.9-1.07,.03-1.95,.36-2.62,.98-.68,.62-1,1.38-.97,2.3,.02,.75,.27,1.44,.74,2.06Z"/>
    <path d="M155.11,130.12v15.66l7.14-7.62v42.42l-7.14-9.15c0,5.15,.53,8.7,1.59,10.65,1.06,1.95,3.01,2.92,5.85,2.92v25.52c-.82,.04-1.43,.06-1.83,.06-3.6,0-6.99-1.28-10.18-3.83-3.19-2.55-5.75-6.02-7.68-10.39-2.44-5.58-3.66-12.99-3.66-22.21l-2.25-53.18,18.15,9.15Z"/>
    <path d="M186.68,164.05l.77,47.67c-1.08,.24-9.35-.39-10.25-.38-5.29,.07-12.33,1.3-12.09-4.23,.18-3.96,.09-41.71,0-48.06-.08-6.18,1.63-11.44,5.14-15.79,3.51-4.35,7.81-6.56,12.92-6.63,5.69-.08,10.21,1.87,13.54,5.86,3.34,3.98,5.05,9.47,5.14,16.44l.27,52.79h-11.98s-1.47-51.46-1.47-51.46c-.03-2.25-.51-4.04-1.43-5.36-.92-1.33-2.15-1.98-3.68-1.96-1.39,.02-2.58,.65-3.57,1.89-1,1.24-1.48,2.7-1.46,4.38,.02,1.77,.5,3.21,1.43,4.34,.93,1.13,2.1,1.68,3.52,1.66,1.15-.02,2.22-.4,3.2-1.15Z"/>
    <path d="M203.14,112.41l-.22,9.85-31.54-.47c-2-.05-3.02,.55-3.05,1.8s.96,1.87,2.96,1.91l32.33,.47-.22,9.85-32.08-.46c-4.54-.1-8.34-1.33-11.4-3.66-3.06-2.34-4.55-5.15-4.48-8.43,.08-3.76,1.96-6.72,5.62-8.91,2.86-1.71,6.8-2.5,11.83-2.39l30.24,.44Z"/>
  </g>
</svg>