<?xml version="1.0" encoding="UTF-8"?>
<svg id="Capa_1" data-name="Capa 1" xmlns="http://www.w3.org/2000/svg" xmlns:xlink="http://www.w3.org/1999/xlink" viewBox="0 0 477.59 286.55">
  <defs>
    <style>
      .cls-1, .cls-2 {
        fill: #fff;
      }

      .cls-3 {
        letter-spacing: .03em;
      }

      .cls-2 {
        font-family: FranklinGothic-Heavy, 'Franklin Gothic Heavy';
        font-size: 17.34px;
        font-weight: 800;
      }

      .cls-4 {
        letter-spacing: .02em;
      }

      .cls-5 {
        letter-spacing: .02em;
      }

      .cls-6 {
        letter-spacing: .02em;
      }

      .cls-7 {
        letter-spacing: .03em;
      }

      .cls-8 {
        fill: #367fb9;
      }

      .cls-9 {
        fill: #306794;
      }

      .cls-10 {
        fill: url(#Degradado_sin_nombre_14);
      }

      .cls-11 {
        letter-spacing: .03em;
      }

      .cls-12 {
        letter-spacing: .04em;
      }
    </style>
    <linearGradient id="Degradado_sin_nombre_14" data-name="Degradado sin nombre 14" x1="0" y1="143.27" x2="477.59" y2="143.27" gradientUnits="userSpaceOnUse">
      <stop offset="0" stop-color="#141e30"/>
      <stop offset=".55" stop-color="#243b55"/>
    </linearGradient>
  </defs>
  <rect class="cls-10" width="477.59" height="286.55"/>
  <polygon class="cls-8" points="182.95 0 102.5 0 216.32 147.61 99.49 286.55 182.95 286.55 296.66 147.46 182.95 0"/>
  <polygon class="cls-9" points="255.43 78.11 219.32 78.11 270.41 144.37 219.42 206.73 255.43 206.73 306.47 144.3 255.43 78.11"/>
  <g>
    <path class="cls-1" d="M57.14,105.15l.65,57.05c0,4.93-1.05,9.01-3.14,12.22-2.09,3.21-4.74,4.82-7.94,4.82-.94,0-2.04-.27-3.29-.82v-13.45s.03-.07,.07-.07h1.39c1.42,0,2.13-1.53,2.13-4.58l-.65-55.17h10.79Z"/>
    <path class="cls-1" d="M117.47,128.24l-.11,5.06-16.19-.24c-1.03-.02-1.55,.28-1.56,.92s.49,.96,1.52,.98l16.6,.24-.11,5.06-16.47-.24c-2.33-.05-4.28-.68-5.85-1.88-1.57-1.2-2.34-2.64-2.3-4.33,.04-1.93,1-3.45,2.88-4.57,1.47-.88,3.49-1.29,6.08-1.23l15.53,.23Z"/>
    <path class="cls-1" d="M109.02,154.76l.4,24.48c-.55,.12-4.8-.2-5.26-.19-2.72,.04-6.33,.67-6.21-2.17,.09-2.03,.04-21.42,0-24.68-.04-3.17,.84-5.88,2.64-8.11,1.8-2.23,4.01-3.37,6.63-3.4,2.92-.04,5.24,.96,6.95,3.01,1.71,2.05,2.59,4.86,2.64,8.44l.14,27.11h-6.15s-.76-26.42-.76-26.42c-.02-1.16-.26-2.07-.73-2.75-.47-.68-1.1-1.02-1.89-1.01-.71,0-1.32,.33-1.84,.97-.51,.64-.76,1.39-.75,2.25,.01,.91,.26,1.65,.74,2.23,.48,.58,1.08,.86,1.81,.85,.59,0,1.14-.21,1.64-.59Z"/>
    <path class="cls-1" d="M92.8,137.34v8.04l3.67-3.91v21.78l-3.67-4.7c0,2.65,.27,4.47,.82,5.47,.55,1,1.55,1.5,3,1.5v13.1c-.42,.02-.74,.03-.94,.03-1.85,0-3.59-.66-5.23-1.97-1.64-1.31-2.95-3.09-3.94-5.33-1.25-2.87-1.88-6.67-1.88-11.4l-1.15-27.31,9.32,4.7Z"/>
    <path class="cls-1" d="M109.19,116.94l-5.17,.16c-.08-.36-.13-.69-.14-.99-.05-1.76,.56-3.26,1.84-4.47,1.28-1.22,2.92-1.86,4.9-1.92,1.93-.06,3.59,.48,4.97,1.63,1.38,1.15,2.09,2.57,2.14,4.27,.06,1.9-.53,3.41-1.76,4.55-1.23,1.13-2.93,1.73-5.11,1.8l-6.53,.2-.13-4.4,6.17-.19c.7-.02,1.26-.19,1.67-.5,.41-.32,.61-.73,.59-1.24-.01-.46-.22-.86-.61-1.18-.39-.33-.85-.48-1.38-.46-.55,.02-1,.18-1.35,.5-.35,.32-.51,.71-.5,1.18,.01,.38,.14,.74,.38,1.06Z"/>
    <path class="cls-1" d="M114.79,105.86l-18.17,8.9-14.37-.18c-1.46-.02-2.2,.56-2.22,1.74s.71,1.75,2.17,1.77l14.37,.18,16.03,9.29-30.33-.18c-3.32-.04-6.1-1.15-8.34-3.31-2.25-2.17-3.35-4.8-3.31-7.89,.04-3.54,1.4-6.37,4.06-8.47,2.08-1.65,4.96-2.45,8.63-2.4l31.49,.56Z"/>
    <path class="cls-1" d="M78.72,164.89c1.57,0,2.92,.69,4.04,2.08,1.12,1.39,1.68,3.05,1.68,4.98s-.57,3.64-1.7,5.02c-1.14,1.38-2.51,2.07-4.11,2.07s-2.98-.69-4.12-2.08c-1.14-1.39-1.71-3.06-1.71-5.01s.57-3.67,1.71-5.02c1.14-1.36,2.55-2.04,4.22-2.04Zm-.11,5.03c-.44,0-.82,.2-1.13,.59-.31,.4-.47,.88-.47,1.45s.16,1.05,.47,1.45c.31,.4,.69,.6,1.13,.6s.82-.2,1.14-.6c.31-.4,.47-.88,.47-1.45s-.16-1.06-.47-1.45c-.31-.4-.69-.59-1.14-.59Z"/>
    <path class="cls-1" d="M69.39,105.34l.53,26.37c1.68-1.58,3.37-2.36,5.05-2.36,2.55,0,4.57,1.19,6.07,3.56,1.5,2.38,2.25,5.58,2.25,9.63v21.65h-9.94v-18.05c0-1.46-.12-2.44-.36-2.95-.24-.5-.7-.75-1.39-.75-1.12,0-1.67,1.06-1.67,3.19l.45,33.65h-10.38V105.34h9.41Z"/>
  </g>
  <text class="cls-2" transform="translate(313.42 214.19)"><tspan class="cls-6" x="0" y="0">Antes de rendi</tspan><tspan class="cls-12" x="123.5" y="0">r</tspan><tspan class="cls-6" x="130.82" y="0">te</tspan><tspan class="cls-6" x="-41.1" y="25.47">en algo piensa por</tspan><tspan class="cls-7" x="116.42" y="25.47">q</tspan><tspan class="cls-5" x="127.11" y="25.47">ue</tspan><tspan class="cls-6" x="45.62" y="50.95">e</tspan><tspan class="cls-11" x="56.16" y="50.95">m</tspan><tspan class="cls-4" x="71.49" y="50.95">peza</tspan><tspan class="cls-3" x="111.63" y="50.95">s</tspan><tspan class="cls-6" x="121.27" y="50.95">tes</tspan></text>
</svg>