<?xml version="1.0" encoding="UTF-8"?>
<svg id="Capa_1" data-name="Capa 1" xmlns="http://www.w3.org/2000/svg" xmlns:xlink="http://www.w3.org/1999/xlink" viewBox="0 0 509.54 286.8">
  <defs>
    <style>
      .cls-1 {
        letter-spacing: .02em;
      }

      .cls-2, .cls-3 {
        fill: #fff;
      }

      .cls-3 {
        font-size: 17.31px;
      }

      .cls-3, .cls-4 {
        font-family: FranklinGothic-Heavy, 'Franklin Gothic Heavy';
        font-weight: 800;
      }

      .cls-5 {
        fill: #081117;
      }

      .cls-6 {
        letter-spacing: 0em;
      }

      .cls-7 {
        fill: #367fb9;
      }

      .cls-8 {
        letter-spacing: .03em;
      }

      .cls-9, .cls-4 {
        fill: #306794;
      }

      .cls-10 {
        fill: url(#Degradado_sin_nombre_14);
      }

      .cls-11 {
        letter-spacing: .02em;
      }

      .cls-12 {
        fill: #f7f7f7;
      }

      .cls-13 {
        letter-spacing: .02em;
      }

      .cls-14 {
        letter-spacing: .01em;
      }

      .cls-4 {
        font-size: 27.82px;
      }
    </style>
    <linearGradient id="Degradado_sin_nombre_14" data-name="Degradado sin nombre 14" x1="-901.25" y1="141.12" x2="-503.32" y2="145.7" gradientTransform="translate(-303.34) rotate(-180) scale(1 -1)" gradientUnits="userSpaceOnUse">
      <stop offset="0" stop-color="#141e30"/>
      <stop offset=".55" stop-color="#243b55"/>
    </linearGradient>
  </defs>
  <rect class="cls-2" width="265.56" height="286.8"/>
  <polygon class="cls-10" points="289.39 0 509.54 0 509.54 286.8 289.39 286.8 175.58 147.6 289.39 0"/>
  <g>
    <rect class="cls-12" x="40.62" y="187.53" width="67.75" height="67.75"/>
    <path class="cls-5" d="M75.3,207.87h2.04v-1.96h-2.04v1.96Zm6.2,1.04v-.95c1.39-.01,2.72,0,4.04-.02v-2.04h-1.96v-2.05h1.96v-4.02h-2.08v2h-2.03v4.07h-2.03v3h2.1Zm-18.51-.9h-2.01v1.28c.64-.22,1.3-.39,2.01-.49v-.79Zm24.51-2.1v-2.05h-1.96v2.05h1.96Zm-38.74-4.12h6.03v-6.12c-2.07,0-4.08-.01-6.03,.01v6.1Zm28.59,4.12h2.05v-6.1c.75-.04,1.41-.07,2.04-.1v-1.99h-8.18v4.09h4.09v4.09Zm-16.33-4.16h2.03v-1.98h4.07v-4.1h5.89s.1-.03,.15-.06c.04-.03,.07-.08,.05-.05v-3.94h-4.05v1.97h-2.06v-1.95h-1.97c-.03,.7-.06,1.35-.09,1.99h-1.99v2.1h-2.01v6.02Zm12.24,2.12v-2.05h-2.05v2.05h2.05Zm-8.21-2.04v6.81s.04,0,.05,0c3.35,0,6,1.03,7.87,3.05,.11,.12,.2,.25,.29,.38h1.97v-2c-.57-.03-1.22-.06-1.92-.1v-1.95c-.7-.03-1.35-.06-2.11-.1v-4.06c-.68,0-1.36,0-2.07,.03-.02,1.32-.02,2.65-.02,4.03h-1.93v-4c.65,0,1.31,0,1.95-.03,.02-.68,.02-1.34,.02-2.07h2.04v-4.03h-2.06v1.98h-2.03v2.05h-2.06Zm-2.08-10.17h-1.96v1.93h1.96v-1.93Zm0,14.23v-1.93h-1.94v1.93h1.94Zm10.29-2.02v2.05h2.04v-2.05h-2.04Zm4.04-12.25h-1.94v1.93h1.94v-1.93Zm-12.19,24.29c-1.12,0-1.55,.39-1.81,.72-.28,.37-.48,.94-.6,1.63h.32v1.92h1.99c.03-.58,.07-1.23,.11-1.99h2v-1.17c-.54-1.1-1.4-1.12-2.01-1.12Zm23.89,3.29c.58-.83,.88-1.77,.88-2.83,0-1.82-.59-3.17-1.76-4.06-1.18-.89-2.99-1.34-5.45-1.34h-5.25v18.04h3.82v-6.92h2.04l4.3,6.92h4.24c-.82-1.18-2.59-3.8-5.31-7.86,1.07-.47,1.89-1.12,2.48-1.94Zm-3.85-.83c-.58,.4-1.47,.6-2.68,.6h-1.23v-4.87h1.16c1.24,0,2.14,.18,2.73,.54,.59,.36,.88,.97,.88,1.83s-.29,1.5-.86,1.9Zm-18.03-.17v4.05c-.75,.04-1.4,.07-2.04,.1v1.64h0c.95,0,2.53,0,2.53-4.04,0-.72-.06-1.27-.15-1.76h-.34Zm36.77-6.2v-4h-1.93v4h1.93Zm.02-6.25v-14.14h-14.22v14.24c4.67,.2,12.87,.13,14.22-.11Zm-12.17-2s-.05-.1-.05-.15c0-3.29,0-6.57,0-9.91h10.21v10.12h-10.1s-.03-.01-.05-.06Zm1.99-2.18s.03,.1,.06,.14c.03,.04,.08,.08,.05,.05h5.99v-6.02h-6.11c0,1.98,0,3.9,0,5.82Zm-21.19,23.73c.75-1.43,1.13-3.22,1.13-5.34,0-2.99-.73-5.29-2.2-6.89-1.47-1.59-3.59-2.39-6.36-2.39s-4.9,.79-6.38,2.38c-1.49,1.59-2.23,3.88-2.23,6.88s.74,5.31,2.22,6.91c1.48,1.6,3.61,2.41,6.36,2.41h.29l3.3,4.05h4.9l-4.34-4.85c1.45-.67,2.56-1.72,3.31-3.15Zm-7.46,.75c-1.51,0-2.66-.51-3.43-1.53-.76-1.02-1.15-2.54-1.15-4.55s.39-3.53,1.16-4.56c.77-1.02,1.92-1.53,3.44-1.53,3.04,0,4.55,2.03,4.55,6.09s-1.52,6.08-4.58,6.08Zm16.37-28.37h2.06v-4.05h4.04v-1.95h-8.09v1.93c.7,.03,1.35,.06,1.99,.09v3.98Zm2.04,18.56v.61c.23-.05,.4-.1,.45-.13,0-.04,.02-.12,.02-.24,0-.06,0-.1,0-.13-.08-.03-.24-.08-.46-.11Zm-26.51,12.26v2.06h3.75c-1.24-.46-2.32-1.15-3.23-2.06h-.53Zm-.05-16.43h-.04v.06s.03-.04,.04-.06Zm26.5,16.34v-1.91h.17l-.32-.51v2.42h.15Zm-24.56,4.22h-1.93v1.93h1.93v-1.93Zm16.49-15.93v-.53h-.14c.05,.18,.1,.35,.14,.53Zm-18.48-6.67h-4.05c-.04-.76-.07-1.41-.1-2h-8.05v3.98h1.92c.04-.7,.07-1.35,.11-1.93h4.04v1.99h6.13v-2.04Zm1.98-2.01h-1.93v1.96h1.93v-1.96Zm-3.95,8.2s-.05,0-.07,0v.3c.03-.1,.05-.21,.07-.31Zm43-2.1h4v-2.05h-4v2.05Zm-30.77,32.79h-2.07v-2.08h-2.04v-2.05h-2.02v8.12h2.04v-1.9h2.07v1.97c.73,0,1.4,0,2.07,0,.66,0,1.32-.02,1.98-.04v-2h-2.02v-2.01Zm12.26-4.17c-.65,.01-1.3,.03-1.96,.04-.67,0-1.34,0-2.13,0v2.05h1.96v2.05h-1.96v4.02h2.07v-1.99h2.04v-2.03h2.03v-2.05h2.04v-2c-.76-.04-1.41-.07-2.04-.11v-1.98h-2.04v2Zm4.09,6.09v-1.96h-2.04v4.03h8.1v-2.05h-1.92c-.04-.7-.07-1.35-.11-1.99h-1.98v1.96h-2.05Zm2.35-18.73l-.3-.47v.87h.54l-.24-.4Zm-12.58,12.77h-2.05v1.96h2.05v-1.96Zm12.28-12.37h-2.05v2.05h2.05v-2.05Zm-12.28,14.33v2.05h2.04v-2.05h-2.04Zm-2.05,0h-2.04v4.1h4.1v-2.05h-2.05v-2.05Zm14.33,2.05v-2.05h-2.05v2.05h2.05Zm16.43-6.22h1.96v-1.93h-1.96v1.93Zm1.92-6.09h-3.95v-6.15h2.01v-6.15h1.93v-4.11h-3.97c-.03-.7-.07-1.35-.1-2h-3.98v-6.14c.73,0,1.4,0,2.08,0,.66-.01,1.31-.03,1.9-.04v-2.01c-1.98,0-3.9,0-5.83,0-.05,0-.1,.03-.14,.06-.04,.03-.07,.08-.17,.2v1.74h-4.05v-1.96h-1.95v1.75c.62,.25,1.19,.54,1.67,.91,.46,.35,.95,.82,1.38,1.44h.97c0,.73,0,1.4,0,2.08,0,.04,0,.09,0,.14,.13,.54,.21,1.15,.22,1.82h3.87v2.06h2.06v4.11h1.96v4.02h-2.02v-2.05h-2c0-.73,0-1.4,0-2.08,0-.66-.03-1.32-.04-2.02h-2.02v-1.92h-2.06c-.2,.75-.53,1.46-.99,2.11-.28,.39-.64,.74-.99,1.07v.74c.03,.05,.07,.09,.1,.14h1.95v1.97c.71,.03,1.36,.06,2,.09v1.99h1.98c.04,.63,.07,1.28,.12,2.04h1.96v4.03h-6.11v-1.41h-4.18v1.48h-1.96v4.09h-2.05v2.05h2.06v4.11h2.06v1.95h2.06v-1.97c.73,0,1.41,0,2.08,0,.66,0,1.32,.02,1.98,.04v2h4.09v-2.05h-1.95v-2.04h1.95v-4.03h2.06v1.98h2.03v-2.05h1.98v-2.06Zm-10.2,6.1h-6.11c0-1.95,0-3.96,0-6.03h6.11v6.03Zm8.26,6.15h1.93v-4h-1.93v4Zm-8.46-18.97l.23,.33v-1.78h-1.22c.4,.59,.75,1.11,.99,1.45Zm8.47-13.68v1.93h1.96v-1.93h-1.96Zm-20.52,24.51c0-.68,0-1.36-.02-2.07-.63-.02-1.29-.02-1.99-.02v-1.92h1.96c0,.65,0,1.32,.02,1.95,.71,.03,1.39,.03,2.07,.03v-4.09h-2.05v-1.48h-6.08v-4.7h0v-2.01h0v-.92c-.23,1.03-.57,1.98-1.01,2.83-.31,.59-.69,1.12-1.09,1.61v.62h-.58c-.12,.12-.22,.26-.35,.38l2.76,3.08,3.06,3.41h-.8c0,1.75,0,3.44,0,5.11,0,.05,.03,.1,.05,.14,.03,.04,.09,.08,.13,.12h1.87v-2.05h2.04Zm10.15-1.99h-1.93v1.93h1.93v-1.93Zm-10.15,4.04h2.04v-2.05h-2.04v2.05Zm-22.57-34.97v-14.13h-14.21v14.24c4.78,.2,12.87,.13,14.21-.11Zm-12.17-2s-.05-.1-.05-.15c0-3.28,0-6.57,0-9.91h10.2v10.12h-10.1s-.03-.02-.05-.06Zm6.13,22.67v1.96h1.93v-1.96h-1.93Zm-4.19,8.11v-1.96h-1.93v1.96h1.93Zm2.06-6.1v2.07h-2.01v2.02h6.07v-2.06h-1.98v-2.04h-2.08Zm-6.03,2.01h1.93v-1.96h-1.93v1.96Zm10.16,10.33h-6.11v6.03h6.11c0-2.07,0-4.08,0-6.03Zm-8.18-12.34h2.04v-6.14h-2.04v6.14Zm0-8.19h2.04v2.05h4.13v2.01h2.01v-.94c-.21-.97-.35-1.99-.37-3.12h-3.72v-2.04h-1.96v-2.05h1.96v-1.96h-4.14v1.92c-.71,.03-1.36,.07-1.94,.09v1.95c.7,.04,1.35,.07,1.99,.11v1.98Zm6.05-2.04v-2.05h-1.95v2.05h1.95Zm-8,2.04v2.05h1.96v-2.05h-1.96Zm20.38,18.42h2.04v-2.03h-1.98v-4.43l-.75-.92c-1.24-.06-2.36-.3-3.39-.66v1.92h1.98v2.06h-1.95v1.97c.7,.03,1.35,.07,2,.1v6.08h2.04v-4.09Zm30.78,12.24h1.93v-4h-1.93v4Zm3.93-8.15v-2.04h-1.96v2.04h1.96Zm2.14,8.1v-4h-2.04v4h2.04Zm-36.84-8.1v2.05h4.1v-4.13h6.1v-3.99h-2.03v1.98h-6.12v4.09h-2.04Zm34.8,4.1v-2.05h-2.05v2.05h2.05Zm-8.12,2.01h1.93v-4h-1.93v4Zm-47.12-12.19v14.21h14.24c.2-4.55,.13-12.87-.11-14.21h-14.14Zm12.2,12.11s-.02,.03-.07,.06c-.04,.03-.09,.05-.15,.05-3.28,0-6.57,0-9.91,0v-10.21h10.12v10.1Z"/>
  </g>
  <text class="cls-4" transform="translate(40.51 52.37)"><tspan class="cls-1" x="0" y="0">Jhona</tspan><tspan class="cls-8" x="80.13" y="0">t</tspan><tspan class="cls-1" x="91.27" y="0">an </tspan><tspan class="cls-14" x="0" y="33.39">P</tspan><tspan class="cls-11" x="18.21" y="33.39">arra</tspan></text>
  <text class="cls-3" transform="translate(313.57 151.4)"><tspan class="cls-13" x="0" y="0">Desarrollador </tspan><tspan class="cls-6" x="121.51" y="0">w</tspan><tspan class="cls-13" x="134.49" y="0">eb</tspan></text>
  <polygon class="cls-7" points="265.56 0 346.07 0 232.15 147.74 349.09 286.8 265.56 286.8 151.75 147.59 265.56 0"/>
  <polygon class="cls-9" points="193.18 78.8 229.22 78.8 178.23 144.92 229.11 207.15 193.18 207.15 142.25 144.85 193.18 78.8"/>
</svg>